<svg xmlns="http://www.w3.org/2000/svg" xmlns:xlink="http://www.w3.org/1999/xlink" viewBox="0 0 2500 1600"><defs><style>.cls-1{fill:url(#linear-gradient);}.cls-2{fill:none;}.cls-3{isolation:isolate;}.cls-4{fill:url(#linear-gradient-2);}.cls-5{fill:url(#linear-gradient-3);}.cls-6{fill:url(#linear-gradient-4);}.cls-10,.cls-7{opacity:0.5;}.cls-10,.cls-8{fill:#1fb3db;}.cls-13,.cls-42,.cls-43,.cls-9{mix-blend-mode:screen;opacity:0.8;}.cls-9{fill:url(#linear-gradient-5);}.cls-11{fill:#f4b10b;}.cls-12{fill:url(#linear-gradient-6);}.cls-13{fill:url(#linear-gradient-7);}.cls-14{fill:url(#linear-gradient-8);}.cls-15{fill:#0f212d;}.cls-16{fill:#275ead;}.cls-17{fill:#17374f;}.cls-18{fill:#bf4a21;}.cls-19{fill:#276bd8;}.cls-20{fill:#f2790c;}.cls-21{mix-blend-mode:overlay;}.cls-21,.cls-36{opacity:0.6;}.cls-22{fill:#d65821;}.cls-23,.cls-25{fill:#f9f5ea;}.cls-24{fill:#d17609;}.cls-25,.cls-32{opacity:0.25;}.cls-26{fill:#a0580a;}.cls-27{fill:#993816;}.cls-28{fill:#266cbf;}.cls-29{fill:url(#linear-gradient-9);}.cls-30{opacity:0.4;}.cls-31{clip-path:url(#clip-path);}.cls-33{clip-path:url(#clip-path-2);}.cls-34{fill:#f5af5a;}.cls-35,.cls-36,.cls-39{fill:#e97c4a;}.cls-35{opacity:0.3;}.cls-37{fill:url(#linear-gradient-11);}.cls-38{fill:url(#linear-gradient-12);}.cls-40{opacity:0.75;}.cls-41{fill:#fff;}.cls-42{fill:url(#radial-gradient);}.cls-43{fill:url(#radial-gradient-2);}</style><linearGradient id="linear-gradient" x1="1250" y1="-133.87" x2="1250" y2="257.06" gradientUnits="userSpaceOnUse"><stop offset="0" stop-color="#007baa"/><stop offset="1" stop-color="#5bbaf4"/></linearGradient><linearGradient id="linear-gradient-2" x1="1250" y1="1183.26" x2="1250" y2="42.28" gradientUnits="userSpaceOnUse"><stop offset="0" stop-color="#007baa"/><stop offset="1" stop-color="#002f55"/></linearGradient><linearGradient id="linear-gradient-3" x1="2037.77" y1="1504.14" x2="2075.34" y2="599.45" xlink:href="#linear-gradient-2"/><linearGradient id="linear-gradient-4" x1="3667.45" y1="1504.14" x2="3705.01" y2="599.45" gradientTransform="matrix(-1, 0, 0, 1, 4129.68, 0)" xlink:href="#linear-gradient-2"/><linearGradient id="linear-gradient-5" x1="1851.69" y1="-400.74" x2="1851.69" y2="607.65" gradientUnits="userSpaceOnUse"><stop offset="0" stop-color="#fff"/><stop offset="1"/></linearGradient><linearGradient id="linear-gradient-6" x1="2034.65" y1="195.61" x2="2034.65" y2="-0.07" xlink:href="#linear-gradient-2"/><linearGradient id="linear-gradient-7" x1="648.31" y1="-400.74" x2="648.31" y2="607.65" xlink:href="#linear-gradient-5"/><linearGradient id="linear-gradient-8" x1="470.36" y1="195.61" x2="470.36" y2="-0.07" xlink:href="#linear-gradient-2"/><linearGradient id="linear-gradient-9" x1="1250" y1="392.04" x2="1250" y2="-101.08" xlink:href="#linear-gradient-2"/><clipPath id="clip-path"><polygon class="cls-1" points="766.83 0 804.6 222.22 1695.4 222.22 1733.17 0 766.83 0"/></clipPath><clipPath id="clip-path-2"><rect class="cls-2" y="835.87" width="2500" height="764.13"/></clipPath><linearGradient id="linear-gradient-11" x1="828.2" y1="1093.96" x2="-108.96" y2="1730.52" gradientUnits="userSpaceOnUse"><stop offset="0" stop-color="#e77b39"/><stop offset="1" stop-color="#f5af5a"/></linearGradient><linearGradient id="linear-gradient-12" x1="1815.93" y1="940.13" x2="2856.9" y2="1805.85" xlink:href="#linear-gradient-11"/><radialGradient id="radial-gradient" cx="1000.45" cy="18328.01" r="428.77" gradientTransform="translate(-133.17 -3653.17) scale(0.91 0.26)" xlink:href="#linear-gradient-5"/><radialGradient id="radial-gradient-2" cx="2051.87" cy="18328.01" r="428.77" gradientTransform="translate(-133.17 -3653.17) scale(0.91 0.26)" xlink:href="#linear-gradient-5"/></defs><g class="cls-3"><g id="BACKGROUND"><rect class="cls-4" width="2500" height="1600"/><polygon class="cls-5" points="2500 928.61 2500 0 2017.87 2.5 1869.71 298.13 1686.86 660.48 1629.68 775.91 2500 928.61"/><polygon class="cls-6" points="0 928.61 0 0 482.13 2.5 630.29 298.13 813.14 660.48 870.32 775.91 0 928.61"/><g class="cls-7"><circle class="cls-8" cx="900.74" cy="451.52" r="60.26" transform="translate(-93.17 286.15) rotate(-17.18)"/><circle class="cls-8" cx="975.87" cy="599.17" r="16.04" transform="translate(-83.78 165.04) rotate(-9.27)"/><circle class="cls-8" cx="1248.69" cy="593.91" r="27.33" transform="translate(-103.05 302.78) rotate(-13.28)"/><circle class="cls-8" cx="1804.78" cy="604.23" r="41.19"/><circle class="cls-8" cx="1588.62" cy="341.99" r="22.66" transform="translate(-36.08 374.14) rotate(-13.28)"/><circle class="cls-8" cx="1324.13" cy="418.26" r="16.04" transform="translate(-59.27 538.56) rotate(-22.5)"/><circle class="cls-8" cx="1475.27" cy="633.45" r="16.04" transform="translate(-82.42 244.49) rotate(-9.22)"/><circle class="cls-8" cx="1974.97" cy="329.24" r="16.04" transform="translate(915.01 2027.88) rotate(-67.5)"/><circle class="cls-8" cx="2428.39" cy="282.09" r="16.04" transform="translate(511.79 1799.75) rotate(-45)"/><circle class="cls-8" cx="1927.28" cy="637.28" r="16.04" transform="translate(-63.43 240.26) rotate(-7.02)"/><circle class="cls-8" cx="1157.99" cy="357.02" r="8.02"/><circle class="cls-8" cx="999.93" cy="298.13" r="8.02" transform="translate(346.06 1111.28) rotate(-67.8)"/><circle class="cls-8" cx="1288.91" cy="337.26" r="8.02"/><circle class="cls-8" cx="1463.84" cy="306.15" r="8.02" transform="translate(212.27 1124.76) rotate(-45)"/><circle class="cls-8" cx="1903.21" cy="522.93" r="8.02"/><circle class="cls-8" cx="2188.45" cy="680.91" r="8.02" transform="translate(159.5 1746.9) rotate(-45)"/><circle class="cls-8" cx="1056.48" cy="381.09" r="8.02" transform="translate(39.97 858.66) rotate(-45)"/><circle class="cls-8" cx="900.74" cy="680.91" r="8.02" transform="translate(-131.98 224.33) rotate(-13.24)"/><circle class="cls-8" cx="1134.93" cy="672.89" r="8.02"/><circle class="cls-8" cx="1126.91" cy="530.96" r="8.02" transform="translate(205.12 1368.9) rotate(-67.5)"/><circle class="cls-8" cx="1479.88" cy="475.59" r="8.02" transform="translate(-69.68 352.73) rotate(-13.28)"/><circle class="cls-8" cx="1819.52" cy="524.08" r="8.02" transform="translate(639.03 2004.54) rotate(-67.5)"/><circle class="cls-8" cx="1712.54" cy="676.91" r="8.02" transform="translate(22.94 1409.21) rotate(-45)"/><circle class="cls-8" cx="1751.6" cy="340.98" r="8.02" transform="translate(271.92 1338.44) rotate(-45)"/><circle class="cls-8" cx="1580.6" cy="672.89" r="8.02" transform="translate(354.06 1875.67) rotate(-67.5)"/><circle class="cls-8" cx="698.22" cy="580.53" r="8.02" transform="translate(-84.16 119.66) rotate(-9.24)"/><circle class="cls-8" cx="868.29" cy="588.55" r="8.02" transform="translate(-161.85 786.36) rotate(-45)"/><circle class="cls-8" cx="827.17" cy="319.32" r="8.02" transform="translate(-51.14 197.88) rotate(-13.24)"/><circle class="cls-8" cx="540.74" cy="340.98" r="8.02" transform="translate(-82.73 482.23) rotate(-45)"/><circle class="cls-8" cx="339.83" cy="696.96" r="8.02" transform="translate(-434.22 742.63) rotate(-67.38)"/><circle class="cls-8" cx="62.28" cy="357.02" r="8.02"/><circle class="cls-8" cx="577.33" cy="473.47" r="8.02" transform="translate(-68.23 98.33) rotate(-9.19)"/><circle class="cls-8" cx="1629.68" cy="467.57" r="19.99" transform="translate(-63.83 386.93) rotate(-13.28)"/><circle class="cls-8" cx="1649.66" cy="590.47" r="19.99"/><circle class="cls-8" cx="1883.22" cy="406.16" r="19.99"/><circle class="cls-8" cx="1368.74" cy="547" r="16.04" transform="translate(-69.95 226.31) rotate(-9.22)"/><circle class="cls-8" cx="735.03" cy="357.02" r="16.04" transform="translate(126.08 901.92) rotate(-67.73)"/><circle class="cls-8" cx="585.35" cy="644.43" r="16.04"/></g><path class="cls-8" d="M1819.45,386.42q-24.14,44.65-47,90T1728,567.59c-14.34,30.65-28.33,61.47-41.15,92.89,17.66-29,34.14-58.54,50.28-88.29s31.72-59.76,46.95-90,30.07-60.59,44.45-91.22,28.33-61.47,41.17-92.88C1852.07,327.11,1835.59,356.68,1819.45,386.42Z"/><path class="cls-8" d="M680.55,386.42q24.13,44.65,47,90T772,567.59c14.34,30.65,28.33,61.47,41.15,92.89-17.66-29-34.14-58.54-50.28-88.29s-31.72-59.76-47-90S685.84,421.64,671.46,391s-28.33-61.47-41.17-92.88C647.93,327.11,664.41,356.68,680.55,386.42Z"/><polygon class="cls-9" points="2223.5 57.52 1945.93 716.04 1479.88 716.04 1983.66 86.51 2223.5 57.52"/><path class="cls-10" d="M2382.07,0,2351.6,20.05c-13.67,9-41.78,22.47-128.1,37.47q-6.09,1.06-12.56,2.13c-54.87,9.05-125,17.5-208.3,25.15l-19,1.71C1849.52,98.32,1728.26,104,1727,104.06l-25.11,1.16V0Z"/><path class="cls-11" d="M2237.31,21.75,2223.5,57.52q-6.09,1.06-12.56,2.13c-54.87,9.05-125,17.5-208.3,25.15l-19,1.71,14-36.38Z"/><path class="cls-12" d="M2340.91,2.5c-84.52,55.61-612.52,80.09-612.52,80.09V2.5Z"/><polygon class="cls-13" points="276.5 57.52 554.07 716.04 1020.12 716.04 516.34 86.51 276.5 57.52"/><path class="cls-10" d="M117.93,0,148.4,20.05c13.67,9,41.78,22.47,128.1,37.47q6.09,1.06,12.56,2.13c54.87,9.05,125,17.5,208.3,25.15l19,1.71C650.48,98.32,771.74,104,773,104.06l25.11,1.16V0Z"/><path class="cls-11" d="M262.69,21.75,276.5,57.52q6.09,1.06,12.56,2.13c54.87,9.05,125,17.5,208.3,25.15l19,1.71-14-36.38Z"/><path class="cls-14" d="M164.1,2.5c84.52,55.61,612.51,80.09,612.51,80.09V2.5Z"/></g><g id="MID-GROUND"><polygon class="cls-15" points="1875.93 0 1834.28 96.41 1826.99 113.29 1801.78 171.65 1739.63 112.25 1739.63 0 1875.93 0"/><polygon class="cls-16" points="1801.78 171.65 1816.34 171.65 1903.21 0 1875.93 0 1801.78 171.65"/><polygon class="cls-17" points="1834.28 96.41 1826.99 113.29 1739.63 44.38 1739.63 21.75 1834.28 96.41"/><rect class="cls-17" x="1739.63" y="68.77" width="59.61" height="22.63"/><polygon class="cls-17" points="1728.16 153.35 1789.21 216.74 1789.21 232.39 1728.16 177.22 1728.16 153.35"/><rect class="cls-17" x="1789.21" y="216.74" width="12.57" height="15.65"/><polygon class="cls-15" points="1801.78 216.74 1801.78 212.44 1790.34 212.44 1728.16 145.65 1728.16 153.35 1789.21 216.74 1801.78 216.74"/><polygon class="cls-15" points="624.07 0 665.72 96.41 673.01 113.29 698.22 171.65 760.37 112.25 760.37 0 624.07 0"/><polygon class="cls-16" points="698.22 171.65 683.66 171.65 596.79 0 624.07 0 698.22 171.65"/><polygon class="cls-17" points="665.72 96.41 673.01 113.29 760.37 44.38 760.37 21.75 665.72 96.41"/><rect class="cls-17" x="700.76" y="68.77" width="59.61" height="22.63"/><polygon class="cls-17" points="771.83 153.35 710.79 216.74 710.79 232.39 771.83 177.22 771.83 153.35"/><rect class="cls-17" x="698.22" y="216.74" width="12.57" height="15.65"/><polygon class="cls-15" points="698.22 216.74 698.22 212.44 709.66 212.44 771.83 145.65 771.83 153.35 710.79 216.74 698.22 216.74"/><path class="cls-18" d="M2201.43,763.92H298.57C197.09,763.92,0,848.43,0,848.43v112.8H2500V848.43S2302.91,763.92,2201.43,763.92Z"/><rect class="cls-11" x="765.81" y="741.61" width="322.92" height="103.57"/><rect class="cls-19" x="1088.54" y="741.61" width="322.92" height="103.57"/><rect class="cls-19" x="442.89" y="741.61" width="322.92" height="103.57"/><rect class="cls-19" x="1734.19" y="741.61" width="322.92" height="103.57"/><rect class="cls-11" x="1411.28" y="741.61" width="322.92" height="103.57"/><polygon class="cls-11" points="2057.11 741.61 2057.11 845.17 2380.02 989.3 2380.02 878.74 2057.11 741.61"/><polygon class="cls-20" points="442.89 741.61 442.89 845.17 119.98 989.3 119.98 878.74 442.89 741.61"/><polygon class="cls-21" points="442.89 741.61 442.89 845.17 2057.11 741.61 442.89 741.61"/><polygon class="cls-22" points="2500 1036.91 2500 1600 0 1600 0 1036.91 452.21 835.87 2047.79 835.87 2500 1036.91"/><polygon class="cls-16" points="2483.87 1255.09 2337.93 1105.85 2325.17 825.6 2321.85 752.49 2316.09 626.04 2357.17 476.7 2412.35 532.91 2444.32 855.71 2464.87 1063.24 2483.87 1255.09"/><polygon class="cls-17" points="2412.35 532.91 2445.74 517.78 2500 724.65 2500 1271.59 2483.86 1255.09 2412.35 532.91"/><polygon class="cls-15" points="2445.74 517.78 2363.43 431.96 2357.17 476.7 2412.35 532.91 2445.74 517.78"/><polygon class="cls-23" points="2039.04 250.52 2039.04 564.22 2353.26 644.43 2353.26 169.52 2039.04 250.52"/><polygon class="cls-11" points="2330.04 194.7 2327.86 427.39 2326.07 617.63 2247.07 599.48 2050.13 554.24 2050.13 261.61 2093.41 251.26 2134.78 241.38 2330.04 194.7"/><polygon class="cls-24" points="2353.26 169.52 2370.58 190.81 2376.48 623.83 2353.26 644.43 2353.26 169.52"/><polygon class="cls-25" points="2328.22 389.69 2326.07 617.63 2247.07 599.48 2093.41 251.26 2134.78 241.38 2328.22 389.69"/><polygon class="cls-24" points="2050.13 554.24 2064.09 546.8 2326.16 607 2326.07 617.63 2050.13 554.24"/><polygon class="cls-26" points="2064.09 546.8 2062.82 269.86 2050.13 261.61 2050.13 554.24 2064.09 546.8"/><polygon class="cls-24" points="2062.82 269.86 2329.93 206.57 2330.04 194.7 2050.13 261.61 2062.82 269.86"/><polygon class="cls-23" points="2093.63 410.83 2093.63 514.91 2278.91 552.67 2282.04 387.61 2093.63 410.83"/><polygon class="cls-24" points="2282.04 387.61 2290.78 394.06 2289.74 543.74 2278.91 552.67 2282.04 387.61"/><polygon class="cls-11" points="2101.46 418.26 2101.46 508.46 2266.98 539.17 2268.35 400.06 2101.46 418.26"/><polygon class="cls-24" points="2101.46 508.46 2111.63 502 2267.09 528.02 2266.98 539.17 2101.46 508.46"/><polygon class="cls-26" points="2111.63 502 2111.63 426.09 2101.46 418.26 2101.46 508.46 2111.63 502"/><polygon class="cls-24" points="2111.63 426.09 2268.25 409.56 2268.35 400.06 2101.46 418.26 2111.63 426.09"/><path class="cls-23" d="M2166.76,475.57a2.5,2.5,0,0,0-3.33,1.19c-.14.3-7,15.15-12.7,41.81a250.54,250.54,0,0,1-25.36,5.91c5.09-30.45,10.84-45.45,11-45.74a2.5,2.5,0,0,0-4.65-1.83c-.12.3-6.23,16.2-11.5,48.45a243.78,243.78,0,0,1-35.21,3c-5.06-33.55-12.09-51.11-12.23-51.45a2.5,2.5,0,0,0-4.63,1.91c.14.33,6.88,17.21,11.82,49.55a232.91,232.91,0,0,1-38.38-3.52c-7.29-35.4-14.86-52.09-15-52.4a2.5,2.5,0,0,0-4.53,2.11c.13.29,7.23,16,14.25,49.29a163.91,163.91,0,0,1-26.08-7.32c-7.2-25.36-14.29-39.51-14.44-39.8a2.5,2.5,0,0,0-4.45,2.27c.31.62,31.19,62.39,29,160.93a2.49,2.49,0,0,0,2.44,2.55h.06a2.49,2.49,0,0,0,2.49-2.44c.12-5.13.14-10.15.09-15.07a100.82,100.82,0,0,0,24,13.89q.42,10.92.59,22.62a2.49,2.49,0,0,0,2.5,2.46h0a2.49,2.49,0,0,0,2.46-2.53c-.1-7.09-.28-14-.52-20.62l1.46.51a103.12,103.12,0,0,0,27.36,5.19q-.89,11.46-2.26,23.66a2.52,2.52,0,0,0,2.21,2.77h.28a2.49,2.49,0,0,0,2.48-2.22q1.41-12.4,2.29-24.06h.78a113.25,113.25,0,0,0,23.79-2.57q.12,6.32.33,12.86a2.51,2.51,0,0,0,2.5,2.42h.09a2.49,2.49,0,0,0,2.41-2.58c-.16-4.73-.27-9.34-.35-13.88a139.91,139.91,0,0,0,27-10.2c.23,2.5.49,5,.77,7.56a2.5,2.5,0,0,0,2.48,2.22h.28a2.51,2.51,0,0,0,2.21-2.77c-11-98.82,17.12-160.16,17.41-160.77A2.5,2.5,0,0,0,2166.76,475.57Zm-23.53,105a162.24,162.24,0,0,1-24.71,9.91c.59-11.84,1.43-22.71,2.43-32.63a119.6,119.6,0,0,0,24.67-8.49C2144.48,559,2143.62,569.4,2143.23,580.61Zm-125.36-31.56a208.58,208.58,0,0,0,24.12,7.07c1.58,10.71,3,22.53,4.26,35.5a91.59,91.59,0,0,1-23.58-10.83C2021.39,569.38,2019.73,558.78,2017.87,549.05Zm29.32,8.21c3.7.77,7.63,1.48,11.76,2.1a191.44,191.44,0,0,0,24.69,2.14c.79,10.65,1.31,22.3,1.39,34.92a115.72,115.72,0,0,1-29.39-2.36c-1.46-.31-2.87-.64-4.24-1C2050.19,580,2048.76,568.09,2047.19,557.26Zm41.45,4.26a153.06,153.06,0,0,0,27.19-2.57c-1,10.06-1.81,21.07-2.38,33A133.87,133.87,0,0,1,2090,596.1C2089.93,583.63,2089.42,572.1,2088.64,561.52Zm61-37.44c-1.17,5.95-2.27,12.41-3.22,19.37a112.29,112.29,0,0,1-24.88,9.18c.92-8.36,1.95-16,3-22.92C2132.59,528.32,2141,526.47,2149.6,524.08Zm-30.25,6.46c-1.07,7-2.09,14.78-3,23.23a147.25,147.25,0,0,1-28.12,2.72c-.71-8.35-1.58-16.07-2.55-23.14A251.65,251.65,0,0,0,2119.35,530.54Zm-70.43.59a237.17,237.17,0,0,0,31.73,2.24c1,7,1.87,14.72,2.58,23.07a201.81,201.81,0,0,1-36.84-4.54q-1.82-11.79-3.78-21.74C2044.64,530.5,2046.74,530.83,2048.92,531.13Zm-11.56-1.92q2,9.81,3.81,21.5a198.25,198.25,0,0,1-24.45-7.44c-1.55-7.53-3.22-14.48-4.9-20.83A181.5,181.5,0,0,0,2037.36,529.21Zm-12.12,89.06c-.29-10.92-1-21.31-1.91-31.15a102.15,102.15,0,0,0,23.41,9.86c1,11.27,1.79,23.36,2.36,36.3A91.65,91.65,0,0,1,2025.24,618.27Zm32.43,18.33c-1.19-.4-2.35-.82-3.48-1.24-.55-13.2-1.35-25.53-2.33-37l2.46.56a119.41,119.41,0,0,0,25.3,2.66c1.76,0,3.58,0,5.42-.13,0,12.44-.48,25.8-1.46,40.05A98.29,98.29,0,0,1,2057.67,636.6Zm30.91,5c1-14.4,1.43-27.91,1.45-40.49a139.84,139.84,0,0,0,23.2-3.93c-.52,12.86-.73,26.77-.53,41.75A108.48,108.48,0,0,1,2088.58,641.61Zm29.1-3.9c-.17-15.06.06-29,.6-41.9a165.55,165.55,0,0,0,24.8-9.56,406.43,406.43,0,0,0,1.26,41A136,136,0,0,1,2117.68,637.71Z"/><rect class="cls-22" x="1987.82" y="463.36" width="218.07" height="20.22"/><rect class="cls-27" x="2171.01" y="463.36" width="34.88" height="20.22"/><polygon class="cls-28" points="2464.87 1063.24 2325.17 825.6 2321.85 752.49 2444.32 855.71 2464.87 1063.24"/><polygon class="cls-16" points="16.13 1255.09 162.07 1105.85 174.83 825.6 178.15 752.49 183.91 626.04 142.83 476.7 87.65 532.91 55.68 855.71 35.13 1063.24 16.13 1255.09"/><polygon class="cls-17" points="87.65 532.91 54.26 517.78 0 724.65 0 1271.59 16.14 1255.09 87.65 532.91"/><polygon class="cls-15" points="54.26 517.78 136.56 431.96 142.83 476.7 87.65 532.91 54.26 517.78"/><polygon class="cls-23" points="460.96 250.52 460.96 564.22 146.74 644.43 146.74 169.52 460.96 250.52"/><polygon class="cls-11" points="169.96 194.7 172.14 427.39 173.93 617.63 252.93 599.48 449.87 554.24 449.87 261.61 406.59 251.26 365.22 241.38 169.96 194.7"/><polygon class="cls-24" points="146.74 169.52 129.42 190.81 123.52 623.83 146.74 644.43 146.74 169.52"/><polygon class="cls-25" points="171.78 389.69 173.93 617.63 252.93 599.48 406.59 251.26 365.22 241.38 171.78 389.69"/><polygon class="cls-24" points="449.87 554.24 435.91 546.8 173.84 607 173.94 617.63 449.87 554.24"/><polygon class="cls-26" points="435.91 546.8 437.19 269.86 449.87 261.61 449.87 554.24 435.91 546.8"/><polygon class="cls-24" points="437.19 269.86 170.07 206.57 169.96 194.7 449.87 261.61 437.19 269.86"/><polygon class="cls-23" points="406.37 410.83 406.37 514.91 221.09 552.67 217.96 387.61 406.37 410.83"/><polygon class="cls-24" points="217.96 387.61 209.22 394.06 210.26 543.74 221.09 552.67 217.96 387.61"/><polygon class="cls-11" points="398.54 418.26 398.54 508.46 233.02 539.17 231.65 400.06 398.54 418.26"/><polygon class="cls-24" points="398.54 508.46 388.37 502 232.91 528.02 233.02 539.17 398.54 508.46"/><polygon class="cls-26" points="388.37 502 388.37 426.09 398.54 418.26 398.54 508.46 388.37 502"/><polygon class="cls-24" points="388.37 426.09 231.75 409.56 231.65 400.06 398.54 418.26 388.37 426.09"/><path class="cls-23" d="M332,478.89c.29.61,28.44,62,17.41,160.77a2.51,2.51,0,0,0,2.21,2.77h.28a2.5,2.5,0,0,0,2.48-2.22c.28-2.55.54-5.06.77-7.56a139.91,139.91,0,0,0,27.05,10.2c-.08,4.54-.19,9.15-.35,13.88a2.49,2.49,0,0,0,2.41,2.58h.09a2.51,2.51,0,0,0,2.5-2.42q.21-6.55.33-12.86A113.25,113.25,0,0,0,411,646.62h.78q.9,11.65,2.29,24.06a2.49,2.49,0,0,0,2.48,2.22h.28a2.52,2.52,0,0,0,2.21-2.77q-1.4-12.21-2.26-23.66a103.12,103.12,0,0,0,27.36-5.19l1.46-.51c-.24,6.67-.42,13.53-.52,20.62a2.49,2.49,0,0,0,2.46,2.53h0a2.49,2.49,0,0,0,2.5-2.46q.17-11.72.59-22.62a100.82,100.82,0,0,0,24-13.89c-.05,4.92,0,9.94.09,15.07a2.49,2.49,0,0,0,2.49,2.44h.06a2.49,2.49,0,0,0,2.44-2.55c-2.2-98.54,28.68-160.31,29-160.93a2.5,2.5,0,0,0-4.45-2.27c-.15.29-7.24,14.44-14.44,39.8a163.91,163.91,0,0,1-26.08,7.32c7-33.32,14.12-49,14.25-49.29a2.5,2.5,0,1,0-4.53-2.11c-.14.31-7.71,17-15,52.4a232.91,232.91,0,0,1-38.38,3.52C425,496,431.76,479.11,431.9,478.78a2.5,2.5,0,0,0-4.63-1.91c-.14.34-7.17,17.9-12.23,51.45a243.78,243.78,0,0,1-35.21-3c-5.27-32.25-11.38-48.15-11.5-48.45a2.5,2.5,0,1,0-4.65,1.83c.11.29,5.86,15.29,10.95,45.74a250.54,250.54,0,0,1-25.36-5.91c-5.73-26.66-12.56-41.51-12.7-41.81a2.5,2.5,0,0,0-4.53,2.13Zm22.34,70.51a119.6,119.6,0,0,0,24.67,8.49c1,9.92,1.84,20.79,2.43,32.63a162.24,162.24,0,0,1-24.71-9.91C356.38,569.4,355.52,559,354.38,549.4Zm123,31.39a91.59,91.59,0,0,1-23.58,10.83c1.22-13,2.68-24.79,4.26-35.5a208.58,208.58,0,0,0,24.12-7.07C480.27,558.78,478.61,569.38,477.33,580.79ZM448.6,593.06c-1.37.36-2.78.69-4.24,1A115.72,115.72,0,0,1,415,596.42c.08-12.62.6-24.27,1.39-34.92a191.44,191.44,0,0,0,24.69-2.14c4.13-.62,8.06-1.33,11.76-2.1C451.24,568.09,449.81,580,448.6,593.06Zm-38.62,3A133.87,133.87,0,0,1,386.55,592c-.57-12-1.39-23-2.38-33a153.06,153.06,0,0,0,27.19,2.57C410.58,572.1,410.07,583.63,410,596.1Zm-34.51-66.39c1.08,6.92,2.11,14.56,3,22.92a112.29,112.29,0,0,1-24.88-9.18c-1-7-2.05-13.42-3.22-19.37C359,526.47,367.41,528.32,375.47,529.71Zm38.84,3.64c-1,7.07-1.84,14.79-2.55,23.14a147.25,147.25,0,0,1-28.12-2.72c-.9-8.45-1.92-16.19-3-23.23A251.65,251.65,0,0,0,414.31,533.35Zm43.08-3.19q-2,10-3.78,21.74a201.81,201.81,0,0,1-36.84,4.54c.71-8.35,1.59-16,2.58-23.07a237.17,237.17,0,0,0,31.73-2.24C453.26,530.83,455.36,530.5,457.39,530.16Zm30.79-7.72c-1.68,6.35-3.35,13.3-4.9,20.83a198.25,198.25,0,0,1-24.45,7.44q1.85-11.69,3.81-21.5A181.5,181.5,0,0,0,488.18,522.44ZM450.9,633.28c.57-12.94,1.38-25,2.36-36.3a102.15,102.15,0,0,0,23.41-9.86c-1,9.84-1.62,20.23-1.91,31.15A91.65,91.65,0,0,1,450.9,633.28Zm-34.47,8.19c-1-14.25-1.44-27.61-1.47-40.05,1.84.08,3.66.13,5.42.13a119.41,119.41,0,0,0,25.3-2.66l2.46-.56c-1,11.5-1.78,23.83-2.33,37-1.13.42-2.29.84-3.48,1.24A98.29,98.29,0,0,1,416.43,641.47Zm-29.13-2.53c.2-15,0-28.89-.53-41.75a139.84,139.84,0,0,0,23.2,3.93c0,12.58.46,26.09,1.45,40.49A108.48,108.48,0,0,1,387.3,638.94ZM355.66,627.3a406.43,406.43,0,0,0,1.26-41,165.55,165.55,0,0,0,24.8,9.56c.54,12.87.77,26.84.6,41.9A136,136,0,0,1,355.66,627.3Z"/><rect class="cls-22" x="294.11" y="463.36" width="218.07" height="20.22" transform="translate(806.3 946.93) rotate(180)"/><rect class="cls-27" x="294.11" y="463.36" width="34.88" height="20.22" transform="translate(623.1 946.93) rotate(180)"/><polygon class="cls-28" points="35.13 1063.24 174.83 825.6 178.15 752.49 55.68 855.71 35.13 1063.24"/><polygon class="cls-23" points="1761.7 0 1721.7 248.04 778.3 248.04 738.3 0 1761.7 0"/><polygon class="cls-29" points="1740.27 0 1701.31 229.22 798.69 229.22 759.73 0 1740.27 0"/><g class="cls-30"><polygon class="cls-1" points="766.83 0 804.6 222.22 1695.4 222.22 1733.17 0 766.83 0"/><g class="cls-31"><path d="M760.14,7.62a2.89,2.89,0,1,1-2.89-2.89A2.89,2.89,0,0,1,760.14,7.62Zm18.53-2.89a2.89,2.89,0,1,0,2.9,2.89A2.89,2.89,0,0,0,778.67,4.73Zm21.43,0A2.89,2.89,0,1,0,803,7.62,2.89,2.89,0,0,0,800.1,4.73Zm21.42,0a2.89,2.89,0,1,0,2.9,2.89A2.89,2.89,0,0,0,821.52,4.73Zm21.43,0a2.89,2.89,0,1,0,2.89,2.89A2.89,2.89,0,0,0,843,4.73Zm21.42,0a2.89,2.89,0,1,0,2.89,2.89A2.89,2.89,0,0,0,864.37,4.73Zm21.42,0a2.89,2.89,0,1,0,2.9,2.89A2.89,2.89,0,0,0,885.79,4.73Zm21.43,0a2.89,2.89,0,1,0,2.89,2.89A2.89,2.89,0,0,0,907.22,4.73Zm21.42,0a2.89,2.89,0,1,0,2.89,2.89A2.89,2.89,0,0,0,928.64,4.73Zm21.43,0A2.89,2.89,0,1,0,953,7.62,2.89,2.89,0,0,0,950.07,4.73Zm21.42,0a2.89,2.89,0,1,0,2.89,2.89A2.89,2.89,0,0,0,971.49,4.73Zm21.42,0a2.89,2.89,0,1,0,2.9,2.89A2.89,2.89,0,0,0,992.91,4.73Zm21.43,0a2.89,2.89,0,1,0,2.89,2.89A2.89,2.89,0,0,0,1014.34,4.73Zm21.42,0a2.89,2.89,0,1,0,2.89,2.89A2.89,2.89,0,0,0,1035.76,4.73Zm21.42,0a2.89,2.89,0,1,0,2.9,2.89A2.89,2.89,0,0,0,1057.18,4.73Zm21.43,0a2.89,2.89,0,1,0,2.89,2.89A2.89,2.89,0,0,0,1078.61,4.73Zm21.42,0a2.89,2.89,0,1,0,2.9,2.89A2.89,2.89,0,0,0,1100,4.73Zm21.43,0a2.89,2.89,0,1,0,2.89,2.89A2.89,2.89,0,0,0,1121.46,4.73Zm21.42,0a2.89,2.89,0,1,0,2.89,2.89A2.89,2.89,0,0,0,1142.88,4.73Zm21.42,0a2.89,2.89,0,1,0,2.9,2.89A2.89,2.89,0,0,0,1164.3,4.73Zm21.43,0a2.89,2.89,0,1,0,2.89,2.89A2.89,2.89,0,0,0,1185.73,4.73Zm21.42,0a2.89,2.89,0,1,0,2.9,2.89A2.89,2.89,0,0,0,1207.15,4.73Zm21.43,0a2.89,2.89,0,1,0,2.89,2.89A2.89,2.89,0,0,0,1228.58,4.73Zm21.42,0a2.89,2.89,0,1,0,2.89,2.89A2.89,2.89,0,0,0,1250,4.73Zm21.42,0a2.89,2.89,0,1,0,2.9,2.89A2.89,2.89,0,0,0,1271.42,4.73Zm21.43,0a2.89,2.89,0,1,0,2.89,2.89A2.89,2.89,0,0,0,1292.85,4.73Zm21.42,0a2.89,2.89,0,1,0,2.9,2.89A2.89,2.89,0,0,0,1314.27,4.73Zm21.43,0a2.89,2.89,0,1,0,2.89,2.89A2.89,2.89,0,0,0,1335.7,4.73Zm21.42,0A2.89,2.89,0,1,0,1360,7.62,2.89,2.89,0,0,0,1357.12,4.73Zm21.42,0a2.89,2.89,0,1,0,2.9,2.89A2.89,2.89,0,0,0,1378.54,4.73Zm21.43,0a2.89,2.89,0,1,0,2.89,2.89A2.89,2.89,0,0,0,1400,4.73Zm21.42,0a2.89,2.89,0,1,0,2.89,2.89A2.89,2.89,0,0,0,1421.39,4.73Zm21.43,0a2.89,2.89,0,1,0,2.89,2.89A2.89,2.89,0,0,0,1442.82,4.73Zm21.42,0a2.89,2.89,0,1,0,2.89,2.89A2.89,2.89,0,0,0,1464.24,4.73Zm21.42,0a2.89,2.89,0,1,0,2.9,2.89A2.89,2.89,0,0,0,1485.66,4.73Zm21.43,0A2.89,2.89,0,1,0,1510,7.62,2.89,2.89,0,0,0,1507.09,4.73Zm21.42,0a2.89,2.89,0,1,0,2.89,2.89A2.89,2.89,0,0,0,1528.51,4.73Zm21.42,0a2.89,2.89,0,1,0,2.9,2.89A2.89,2.89,0,0,0,1549.93,4.73Zm21.43,0a2.89,2.89,0,1,0,2.89,2.89A2.89,2.89,0,0,0,1571.36,4.73Zm21.42,0a2.89,2.89,0,1,0,2.9,2.89A2.89,2.89,0,0,0,1592.78,4.73Zm21.43,0a2.89,2.89,0,1,0,2.89,2.89A2.89,2.89,0,0,0,1614.21,4.73Zm21.42,0a2.89,2.89,0,1,0,2.89,2.89A2.89,2.89,0,0,0,1635.63,4.73Zm21.42,0a2.89,2.89,0,1,0,2.9,2.89A2.89,2.89,0,0,0,1657.05,4.73Zm21.43,0a2.89,2.89,0,1,0,2.89,2.89A2.89,2.89,0,0,0,1678.48,4.73Zm21.42,0a2.89,2.89,0,1,0,2.9,2.89A2.89,2.89,0,0,0,1699.9,4.73Zm21.43,0a2.89,2.89,0,1,0,2.89,2.89A2.89,2.89,0,0,0,1721.33,4.73Zm21.42,0a2.89,2.89,0,1,0,2.89,2.89A2.89,2.89,0,0,0,1742.75,4.73ZM768,20.65a2.9,2.9,0,1,0,2.9,2.89A2.89,2.89,0,0,0,768,20.65Zm21.43,0a2.9,2.9,0,1,0,2.89,2.89A2.89,2.89,0,0,0,789.39,20.65Zm21.42,0a2.9,2.9,0,1,0,2.89,2.89A2.89,2.89,0,0,0,810.81,20.65Zm21.42,0a2.9,2.9,0,1,0,2.9,2.89A2.89,2.89,0,0,0,832.23,20.65Zm21.43,0a2.9,2.9,0,1,0,2.89,2.89A2.89,2.89,0,0,0,853.66,20.65Zm21.42,0a2.9,2.9,0,1,0,2.9,2.89A2.89,2.89,0,0,0,875.08,20.65Zm21.43,0a2.9,2.9,0,1,0,2.89,2.89A2.89,2.89,0,0,0,896.51,20.65Zm21.42,0a2.9,2.9,0,1,0,2.89,2.89A2.89,2.89,0,0,0,917.93,20.65Zm21.42,0a2.9,2.9,0,1,0,2.9,2.89A2.89,2.89,0,0,0,939.35,20.65Zm21.43,0a2.9,2.9,0,1,0,2.89,2.89A2.89,2.89,0,0,0,960.78,20.65Zm21.42,0a2.9,2.9,0,1,0,2.89,2.89A2.89,2.89,0,0,0,982.2,20.65Zm21.42,0a2.9,2.9,0,1,0,2.9,2.89A2.89,2.89,0,0,0,1003.62,20.65Zm21.43,0a2.9,2.9,0,1,0,2.89,2.89A2.89,2.89,0,0,0,1025.05,20.65Zm21.42,0a2.9,2.9,0,1,0,2.9,2.89A2.89,2.89,0,0,0,1046.47,20.65Zm21.43,0a2.9,2.9,0,1,0,2.89,2.89A2.89,2.89,0,0,0,1067.9,20.65Zm21.42,0a2.9,2.9,0,1,0,2.89,2.89A2.89,2.89,0,0,0,1089.32,20.65Zm21.42,0a2.9,2.9,0,1,0,2.9,2.89A2.89,2.89,0,0,0,1110.74,20.65Zm21.43,0a2.9,2.9,0,1,0,2.89,2.89A2.89,2.89,0,0,0,1132.17,20.65Zm21.42,0a2.9,2.9,0,1,0,2.9,2.89A2.89,2.89,0,0,0,1153.59,20.65Zm21.43,0a2.9,2.9,0,1,0,2.89,2.89A2.89,2.89,0,0,0,1175,20.65Zm21.42,0a2.9,2.9,0,1,0,2.89,2.89A2.89,2.89,0,0,0,1196.44,20.65Zm21.42,0a2.9,2.9,0,1,0,2.9,2.89A2.89,2.89,0,0,0,1217.86,20.65Zm21.43,0a2.9,2.9,0,1,0,2.89,2.89A2.89,2.89,0,0,0,1239.29,20.65Zm21.42,0a2.9,2.9,0,1,0,2.9,2.89A2.89,2.89,0,0,0,1260.71,20.65Zm21.43,0a2.9,2.9,0,1,0,2.89,2.89A2.89,2.89,0,0,0,1282.14,20.65Zm21.42,0a2.9,2.9,0,1,0,2.89,2.89A2.89,2.89,0,0,0,1303.56,20.65Zm21.42,0a2.9,2.9,0,1,0,2.9,2.89A2.89,2.89,0,0,0,1325,20.65Zm21.43,0a2.9,2.9,0,1,0,2.89,2.89A2.89,2.89,0,0,0,1346.41,20.65Zm21.42,0a2.9,2.9,0,1,0,2.9,2.89A2.89,2.89,0,0,0,1367.83,20.65Zm21.43,0a2.9,2.9,0,1,0,2.89,2.89A2.89,2.89,0,0,0,1389.26,20.65Zm21.42,0a2.9,2.9,0,1,0,2.89,2.89A2.89,2.89,0,0,0,1410.68,20.65Zm21.42,0a2.9,2.9,0,1,0,2.9,2.89A2.89,2.89,0,0,0,1432.1,20.65Zm21.43,0a2.9,2.9,0,1,0,2.89,2.89A2.89,2.89,0,0,0,1453.53,20.65Zm21.42,0a2.9,2.9,0,1,0,2.89,2.89A2.89,2.89,0,0,0,1475,20.65Zm21.43,0a2.9,2.9,0,1,0,2.89,2.89A2.89,2.89,0,0,0,1496.38,20.65Zm21.42,0a2.9,2.9,0,1,0,2.89,2.89A2.89,2.89,0,0,0,1517.8,20.65Zm21.42,0a2.9,2.9,0,1,0,2.9,2.89A2.89,2.89,0,0,0,1539.22,20.65Zm21.43,0a2.9,2.9,0,1,0,2.89,2.89A2.89,2.89,0,0,0,1560.65,20.65Zm21.42,0a2.9,2.9,0,1,0,2.89,2.89A2.89,2.89,0,0,0,1582.07,20.65Zm21.42,0a2.9,2.9,0,1,0,2.9,2.89A2.89,2.89,0,0,0,1603.49,20.65Zm21.43,0a2.9,2.9,0,1,0,2.89,2.89A2.89,2.89,0,0,0,1624.92,20.65Zm21.42,0a2.9,2.9,0,1,0,2.9,2.89A2.89,2.89,0,0,0,1646.34,20.65Zm21.43,0a2.9,2.9,0,1,0,2.89,2.89A2.89,2.89,0,0,0,1667.77,20.65Zm21.42,0a2.9,2.9,0,1,0,2.89,2.89A2.89,2.89,0,0,0,1689.19,20.65Zm21.42,0a2.9,2.9,0,1,0,2.9,2.89A2.89,2.89,0,0,0,1710.61,20.65Zm21.43,0a2.9,2.9,0,1,0,2.89,2.89A2.89,2.89,0,0,0,1732,20.65ZM757.25,36.57a2.9,2.9,0,1,0,2.89,2.89A2.89,2.89,0,0,0,757.25,36.57Zm21.42,0a2.9,2.9,0,1,0,2.9,2.89A2.89,2.89,0,0,0,778.67,36.57Zm21.43,0A2.9,2.9,0,1,0,803,39.46,2.89,2.89,0,0,0,800.1,36.57Zm21.42,0a2.9,2.9,0,1,0,2.9,2.89A2.89,2.89,0,0,0,821.52,36.57Zm21.43,0a2.9,2.9,0,1,0,2.89,2.89A2.89,2.89,0,0,0,843,36.57Zm21.42,0a2.9,2.9,0,1,0,2.89,2.89A2.89,2.89,0,0,0,864.37,36.57Zm21.42,0a2.9,2.9,0,1,0,2.9,2.89A2.89,2.89,0,0,0,885.79,36.57Zm21.43,0a2.9,2.9,0,1,0,2.89,2.89A2.89,2.89,0,0,0,907.22,36.57Zm21.42,0a2.9,2.9,0,1,0,2.89,2.89A2.89,2.89,0,0,0,928.64,36.57Zm21.43,0A2.9,2.9,0,1,0,953,39.46,2.89,2.89,0,0,0,950.07,36.57Zm21.42,0a2.9,2.9,0,1,0,2.89,2.89A2.89,2.89,0,0,0,971.49,36.57Zm21.42,0a2.9,2.9,0,1,0,2.9,2.89A2.89,2.89,0,0,0,992.91,36.57Zm21.43,0a2.9,2.9,0,1,0,2.89,2.89A2.89,2.89,0,0,0,1014.34,36.57Zm21.42,0a2.9,2.9,0,1,0,2.89,2.89A2.89,2.89,0,0,0,1035.76,36.57Zm21.42,0a2.9,2.9,0,1,0,2.9,2.89A2.89,2.89,0,0,0,1057.18,36.57Zm21.43,0a2.9,2.9,0,1,0,2.89,2.89A2.89,2.89,0,0,0,1078.61,36.57Zm21.42,0a2.9,2.9,0,1,0,2.9,2.89A2.89,2.89,0,0,0,1100,36.57Zm21.43,0a2.9,2.9,0,1,0,2.89,2.89A2.89,2.89,0,0,0,1121.46,36.57Zm21.42,0a2.9,2.9,0,1,0,2.89,2.89A2.89,2.89,0,0,0,1142.88,36.57Zm21.42,0a2.9,2.9,0,1,0,2.9,2.89A2.89,2.89,0,0,0,1164.3,36.57Zm21.43,0a2.9,2.9,0,1,0,2.89,2.89A2.89,2.89,0,0,0,1185.73,36.57Zm21.42,0a2.9,2.9,0,1,0,2.9,2.89A2.89,2.89,0,0,0,1207.15,36.57Zm21.43,0a2.9,2.9,0,1,0,2.89,2.89A2.89,2.89,0,0,0,1228.58,36.57Zm21.42,0a2.9,2.9,0,1,0,2.89,2.89A2.89,2.89,0,0,0,1250,36.57Zm21.42,0a2.9,2.9,0,1,0,2.9,2.89A2.89,2.89,0,0,0,1271.42,36.57Zm21.43,0a2.9,2.9,0,1,0,2.89,2.89A2.89,2.89,0,0,0,1292.85,36.57Zm21.42,0a2.9,2.9,0,1,0,2.9,2.89A2.89,2.89,0,0,0,1314.27,36.57Zm21.43,0a2.9,2.9,0,1,0,2.89,2.89A2.89,2.89,0,0,0,1335.7,36.57Zm21.42,0a2.9,2.9,0,1,0,2.89,2.89A2.89,2.89,0,0,0,1357.12,36.57Zm21.42,0a2.9,2.9,0,1,0,2.9,2.89A2.89,2.89,0,0,0,1378.54,36.57Zm21.43,0a2.9,2.9,0,1,0,2.89,2.89A2.89,2.89,0,0,0,1400,36.57Zm21.42,0a2.9,2.9,0,1,0,2.89,2.89A2.89,2.89,0,0,0,1421.39,36.57Zm21.43,0a2.9,2.9,0,1,0,2.89,2.89A2.89,2.89,0,0,0,1442.82,36.57Zm21.42,0a2.9,2.9,0,1,0,2.89,2.89A2.89,2.89,0,0,0,1464.24,36.57Zm21.42,0a2.9,2.9,0,1,0,2.9,2.89A2.89,2.89,0,0,0,1485.66,36.57Zm21.43,0a2.9,2.9,0,1,0,2.89,2.89A2.89,2.89,0,0,0,1507.09,36.57Zm21.42,0a2.9,2.9,0,1,0,2.89,2.89A2.89,2.89,0,0,0,1528.51,36.57Zm21.42,0a2.9,2.9,0,1,0,2.9,2.89A2.89,2.89,0,0,0,1549.93,36.57Zm21.43,0a2.9,2.9,0,1,0,2.89,2.89A2.89,2.89,0,0,0,1571.36,36.57Zm21.42,0a2.9,2.9,0,1,0,2.9,2.89A2.89,2.89,0,0,0,1592.78,36.57Zm21.43,0a2.9,2.9,0,1,0,2.89,2.89A2.89,2.89,0,0,0,1614.21,36.57Zm21.42,0a2.9,2.9,0,1,0,2.89,2.89A2.89,2.89,0,0,0,1635.63,36.57Zm21.42,0a2.9,2.9,0,1,0,2.9,2.89A2.89,2.89,0,0,0,1657.05,36.57Zm21.43,0a2.9,2.9,0,1,0,2.89,2.89A2.89,2.89,0,0,0,1678.48,36.57Zm21.42,0a2.9,2.9,0,1,0,2.9,2.89A2.89,2.89,0,0,0,1699.9,36.57Zm21.43,0a2.9,2.9,0,1,0,2.89,2.89A2.89,2.89,0,0,0,1721.33,36.57Zm21.42,0a2.9,2.9,0,1,0,2.89,2.89A2.89,2.89,0,0,0,1742.75,36.57ZM768,52.49a2.9,2.9,0,1,0,2.9,2.89A2.89,2.89,0,0,0,768,52.49Zm21.43,0a2.9,2.9,0,1,0,2.89,2.89A2.9,2.9,0,0,0,789.39,52.49Zm21.42,0a2.9,2.9,0,1,0,2.89,2.89A2.89,2.89,0,0,0,810.81,52.49Zm21.42,0a2.9,2.9,0,1,0,2.9,2.89A2.9,2.9,0,0,0,832.23,52.49Zm21.43,0a2.9,2.9,0,1,0,2.89,2.89A2.9,2.9,0,0,0,853.66,52.49Zm21.42,0a2.9,2.9,0,1,0,2.9,2.89A2.89,2.89,0,0,0,875.08,52.49Zm21.43,0a2.9,2.9,0,1,0,2.89,2.89A2.9,2.9,0,0,0,896.51,52.49Zm21.42,0a2.9,2.9,0,1,0,2.89,2.89A2.89,2.89,0,0,0,917.93,52.49Zm21.42,0a2.9,2.9,0,1,0,2.9,2.89A2.9,2.9,0,0,0,939.35,52.49Zm21.43,0a2.9,2.9,0,1,0,2.89,2.89A2.9,2.9,0,0,0,960.78,52.49Zm21.42,0a2.9,2.9,0,1,0,2.89,2.89A2.89,2.89,0,0,0,982.2,52.49Zm21.42,0a2.9,2.9,0,1,0,2.9,2.89A2.9,2.9,0,0,0,1003.62,52.49Zm21.43,0a2.9,2.9,0,1,0,2.89,2.89A2.89,2.89,0,0,0,1025.05,52.49Zm21.42,0a2.9,2.9,0,1,0,2.9,2.89A2.89,2.89,0,0,0,1046.47,52.49Zm21.43,0a2.9,2.9,0,1,0,2.89,2.89A2.9,2.9,0,0,0,1067.9,52.49Zm21.42,0a2.9,2.9,0,1,0,2.89,2.89A2.89,2.89,0,0,0,1089.32,52.49Zm21.42,0a2.9,2.9,0,1,0,2.9,2.89A2.9,2.9,0,0,0,1110.74,52.49Zm21.43,0a2.9,2.9,0,1,0,2.89,2.89A2.9,2.9,0,0,0,1132.17,52.49Zm21.42,0a2.9,2.9,0,1,0,2.9,2.89A2.89,2.89,0,0,0,1153.59,52.49Zm21.43,0a2.9,2.9,0,1,0,2.89,2.89A2.9,2.9,0,0,0,1175,52.49Zm21.42,0a2.9,2.9,0,1,0,2.89,2.89A2.89,2.89,0,0,0,1196.44,52.49Zm21.42,0a2.9,2.9,0,1,0,2.9,2.89A2.9,2.9,0,0,0,1217.86,52.49Zm21.43,0a2.9,2.9,0,1,0,2.89,2.89A2.9,2.9,0,0,0,1239.29,52.49Zm21.42,0a2.9,2.9,0,1,0,2.9,2.89A2.89,2.89,0,0,0,1260.71,52.49Zm21.43,0a2.9,2.9,0,1,0,2.89,2.89A2.9,2.9,0,0,0,1282.14,52.49Zm21.42,0a2.9,2.9,0,1,0,2.89,2.89A2.89,2.89,0,0,0,1303.56,52.49Zm21.42,0a2.9,2.9,0,1,0,2.9,2.89A2.9,2.9,0,0,0,1325,52.49Zm21.43,0a2.9,2.9,0,1,0,2.89,2.89A2.9,2.9,0,0,0,1346.41,52.49Zm21.42,0a2.9,2.9,0,1,0,2.9,2.89A2.89,2.89,0,0,0,1367.83,52.49Zm21.43,0a2.9,2.9,0,1,0,2.89,2.89A2.9,2.9,0,0,0,1389.26,52.49Zm21.42,0a2.9,2.9,0,1,0,2.89,2.89A2.89,2.89,0,0,0,1410.68,52.49Zm21.42,0a2.9,2.9,0,1,0,2.9,2.89A2.9,2.9,0,0,0,1432.1,52.49Zm21.43,0a2.9,2.9,0,1,0,2.89,2.89A2.9,2.9,0,0,0,1453.53,52.49Zm21.42,0a2.9,2.9,0,1,0,2.89,2.89A2.89,2.89,0,0,0,1475,52.49Zm21.43,0a2.9,2.9,0,1,0,2.89,2.89A2.9,2.9,0,0,0,1496.38,52.49Zm21.42,0a2.9,2.9,0,1,0,2.89,2.89A2.89,2.89,0,0,0,1517.8,52.49Zm21.42,0a2.9,2.9,0,1,0,2.9,2.89A2.89,2.89,0,0,0,1539.22,52.49Zm21.43,0a2.9,2.9,0,1,0,2.89,2.89A2.9,2.9,0,0,0,1560.65,52.49Zm21.42,0a2.9,2.9,0,1,0,2.89,2.89A2.89,2.89,0,0,0,1582.07,52.49Zm21.42,0a2.9,2.9,0,1,0,2.9,2.89A2.9,2.9,0,0,0,1603.49,52.49Zm21.43,0a2.9,2.9,0,1,0,2.89,2.89A2.9,2.9,0,0,0,1624.92,52.49Zm21.42,0a2.9,2.9,0,1,0,2.9,2.89A2.89,2.89,0,0,0,1646.34,52.49Zm21.43,0a2.9,2.9,0,1,0,2.89,2.89A2.9,2.9,0,0,0,1667.77,52.49Zm21.42,0a2.9,2.9,0,1,0,2.89,2.89A2.89,2.89,0,0,0,1689.19,52.49Zm21.42,0a2.9,2.9,0,1,0,2.9,2.89A2.9,2.9,0,0,0,1710.61,52.49Zm21.43,0a2.9,2.9,0,1,0,2.89,2.89A2.9,2.9,0,0,0,1732,52.49ZM757.25,68.41a2.9,2.9,0,1,0,2.89,2.9A2.89,2.89,0,0,0,757.25,68.41Zm21.42,0a2.9,2.9,0,1,0,2.9,2.9A2.9,2.9,0,0,0,778.67,68.41Zm21.43,0a2.9,2.9,0,1,0,2.89,2.9A2.9,2.9,0,0,0,800.1,68.41Zm21.42,0a2.9,2.9,0,1,0,2.9,2.9A2.89,2.89,0,0,0,821.52,68.41Zm21.43,0a2.9,2.9,0,1,0,2.89,2.9A2.9,2.9,0,0,0,843,68.41Zm21.42,0a2.9,2.9,0,1,0,2.89,2.9A2.89,2.89,0,0,0,864.37,68.41Zm21.42,0a2.9,2.9,0,1,0,2.9,2.9A2.9,2.9,0,0,0,885.79,68.41Zm21.43,0a2.9,2.9,0,1,0,2.89,2.9A2.9,2.9,0,0,0,907.22,68.41Zm21.42,0a2.9,2.9,0,1,0,2.89,2.9A2.89,2.89,0,0,0,928.64,68.41Zm21.43,0a2.9,2.9,0,1,0,2.89,2.9A2.9,2.9,0,0,0,950.07,68.41Zm21.42,0a2.9,2.9,0,1,0,2.89,2.9A2.89,2.89,0,0,0,971.49,68.41Zm21.42,0a2.9,2.9,0,1,0,2.9,2.9A2.9,2.9,0,0,0,992.91,68.41Zm21.43,0a2.9,2.9,0,1,0,2.89,2.9A2.9,2.9,0,0,0,1014.34,68.41Zm21.42,0a2.9,2.9,0,1,0,2.89,2.9A2.89,2.89,0,0,0,1035.76,68.41Zm21.42,0a2.9,2.9,0,1,0,2.9,2.9A2.9,2.9,0,0,0,1057.18,68.41Zm21.43,0a2.9,2.9,0,1,0,2.89,2.9A2.89,2.89,0,0,0,1078.61,68.41Zm21.42,0a2.9,2.9,0,1,0,2.9,2.9A2.89,2.89,0,0,0,1100,68.41Zm21.43,0a2.9,2.9,0,1,0,2.89,2.9A2.9,2.9,0,0,0,1121.46,68.41Zm21.42,0a2.9,2.9,0,1,0,2.89,2.9A2.89,2.89,0,0,0,1142.88,68.41Zm21.42,0a2.9,2.9,0,1,0,2.9,2.9A2.9,2.9,0,0,0,1164.3,68.41Zm21.43,0a2.9,2.9,0,1,0,2.89,2.9A2.9,2.9,0,0,0,1185.73,68.41Zm21.42,0a2.9,2.9,0,1,0,2.9,2.9A2.89,2.89,0,0,0,1207.15,68.41Zm21.43,0a2.9,2.9,0,1,0,2.89,2.9A2.9,2.9,0,0,0,1228.58,68.41Zm21.42,0a2.9,2.9,0,1,0,2.89,2.9A2.89,2.89,0,0,0,1250,68.41Zm21.42,0a2.9,2.9,0,1,0,2.9,2.9A2.9,2.9,0,0,0,1271.42,68.41Zm21.43,0a2.9,2.9,0,1,0,2.89,2.9A2.9,2.9,0,0,0,1292.85,68.41Zm21.42,0a2.9,2.9,0,1,0,2.9,2.9A2.89,2.89,0,0,0,1314.27,68.41Zm21.43,0a2.9,2.9,0,1,0,2.89,2.9A2.9,2.9,0,0,0,1335.7,68.41Zm21.42,0a2.9,2.9,0,1,0,2.89,2.9A2.89,2.89,0,0,0,1357.12,68.41Zm21.42,0a2.9,2.9,0,1,0,2.9,2.9A2.9,2.9,0,0,0,1378.54,68.41Zm21.43,0a2.9,2.9,0,1,0,2.89,2.9A2.9,2.9,0,0,0,1400,68.41Zm21.42,0a2.9,2.9,0,1,0,2.89,2.9A2.89,2.89,0,0,0,1421.39,68.41Zm21.43,0a2.9,2.9,0,1,0,2.89,2.9A2.9,2.9,0,0,0,1442.82,68.41Zm21.42,0a2.9,2.9,0,1,0,2.89,2.9A2.89,2.89,0,0,0,1464.24,68.41Zm21.42,0a2.9,2.9,0,1,0,2.9,2.9A2.9,2.9,0,0,0,1485.66,68.41Zm21.43,0a2.9,2.9,0,1,0,2.89,2.9A2.9,2.9,0,0,0,1507.09,68.41Zm21.42,0a2.9,2.9,0,1,0,2.89,2.9A2.89,2.89,0,0,0,1528.51,68.41Zm21.42,0a2.9,2.9,0,1,0,2.9,2.9A2.9,2.9,0,0,0,1549.93,68.41Zm21.43,0a2.9,2.9,0,1,0,2.89,2.9A2.89,2.89,0,0,0,1571.36,68.41Zm21.42,0a2.9,2.9,0,1,0,2.9,2.9A2.89,2.89,0,0,0,1592.78,68.41Zm21.43,0a2.9,2.9,0,1,0,2.89,2.9A2.9,2.9,0,0,0,1614.21,68.41Zm21.42,0a2.9,2.9,0,1,0,2.89,2.9A2.89,2.89,0,0,0,1635.63,68.41Zm21.42,0a2.9,2.9,0,1,0,2.9,2.9A2.9,2.9,0,0,0,1657.05,68.41Zm21.43,0a2.9,2.9,0,1,0,2.89,2.9A2.9,2.9,0,0,0,1678.48,68.41Zm21.42,0a2.9,2.9,0,1,0,2.9,2.9A2.89,2.89,0,0,0,1699.9,68.41Zm21.43,0a2.9,2.9,0,1,0,2.89,2.9A2.9,2.9,0,0,0,1721.33,68.41Zm21.42,0a2.9,2.9,0,1,0,2.89,2.9A2.89,2.89,0,0,0,1742.75,68.41ZM768,84.33a2.9,2.9,0,1,0,2.9,2.9A2.89,2.89,0,0,0,768,84.33Zm21.43,0a2.9,2.9,0,1,0,2.89,2.9A2.9,2.9,0,0,0,789.39,84.33Zm21.42,0a2.9,2.9,0,1,0,2.89,2.9A2.89,2.89,0,0,0,810.81,84.33Zm21.42,0a2.9,2.9,0,1,0,2.9,2.9A2.9,2.9,0,0,0,832.23,84.33Zm21.43,0a2.9,2.9,0,1,0,2.89,2.9A2.9,2.9,0,0,0,853.66,84.33Zm21.42,0a2.9,2.9,0,1,0,2.9,2.9A2.89,2.89,0,0,0,875.08,84.33Zm21.43,0a2.9,2.9,0,1,0,2.89,2.9A2.9,2.9,0,0,0,896.51,84.33Zm21.42,0a2.9,2.9,0,1,0,2.89,2.9A2.89,2.89,0,0,0,917.93,84.33Zm21.42,0a2.9,2.9,0,1,0,2.9,2.9A2.9,2.9,0,0,0,939.35,84.33Zm21.43,0a2.9,2.9,0,1,0,2.89,2.9A2.9,2.9,0,0,0,960.78,84.33Zm21.42,0a2.9,2.9,0,1,0,2.89,2.9A2.89,2.89,0,0,0,982.2,84.33Zm21.42,0a2.9,2.9,0,1,0,2.9,2.9A2.9,2.9,0,0,0,1003.62,84.33Zm21.43,0a2.9,2.9,0,1,0,2.89,2.9A2.89,2.89,0,0,0,1025.05,84.33Zm21.42,0a2.9,2.9,0,1,0,2.9,2.9A2.89,2.89,0,0,0,1046.47,84.33Zm21.43,0a2.9,2.9,0,1,0,2.89,2.9A2.9,2.9,0,0,0,1067.9,84.33Zm21.42,0a2.9,2.9,0,1,0,2.89,2.9A2.89,2.89,0,0,0,1089.32,84.33Zm21.42,0a2.9,2.9,0,1,0,2.9,2.9A2.9,2.9,0,0,0,1110.74,84.33Zm21.43,0a2.9,2.9,0,1,0,2.89,2.9A2.9,2.9,0,0,0,1132.17,84.33Zm21.42,0a2.9,2.9,0,1,0,2.9,2.9A2.89,2.89,0,0,0,1153.59,84.33Zm21.43,0a2.9,2.9,0,1,0,2.89,2.9A2.9,2.9,0,0,0,1175,84.33Zm21.42,0a2.9,2.9,0,1,0,2.89,2.9A2.89,2.89,0,0,0,1196.44,84.33Zm21.42,0a2.9,2.9,0,1,0,2.9,2.9A2.9,2.9,0,0,0,1217.86,84.33Zm21.43,0a2.9,2.9,0,1,0,2.89,2.9A2.9,2.9,0,0,0,1239.29,84.33Zm21.42,0a2.9,2.9,0,1,0,2.9,2.9A2.89,2.89,0,0,0,1260.71,84.33Zm21.43,0a2.9,2.9,0,1,0,2.89,2.9A2.9,2.9,0,0,0,1282.14,84.33Zm21.42,0a2.9,2.9,0,1,0,2.89,2.9A2.89,2.89,0,0,0,1303.56,84.33Zm21.42,0a2.9,2.9,0,1,0,2.9,2.9A2.9,2.9,0,0,0,1325,84.33Zm21.43,0a2.9,2.9,0,1,0,2.89,2.9A2.9,2.9,0,0,0,1346.41,84.33Zm21.42,0a2.9,2.9,0,1,0,2.9,2.9A2.89,2.89,0,0,0,1367.83,84.33Zm21.43,0a2.9,2.9,0,1,0,2.89,2.9A2.9,2.9,0,0,0,1389.26,84.33Zm21.42,0a2.9,2.9,0,1,0,2.89,2.9A2.89,2.89,0,0,0,1410.68,84.33Zm21.42,0a2.9,2.9,0,1,0,2.9,2.9A2.9,2.9,0,0,0,1432.1,84.33Zm21.43,0a2.9,2.9,0,1,0,2.89,2.9A2.9,2.9,0,0,0,1453.53,84.33Zm21.42,0a2.9,2.9,0,1,0,2.89,2.9A2.89,2.89,0,0,0,1475,84.33Zm21.43,0a2.9,2.9,0,1,0,2.89,2.9A2.9,2.9,0,0,0,1496.38,84.33Zm21.42,0a2.9,2.9,0,1,0,2.89,2.9A2.89,2.89,0,0,0,1517.8,84.33Zm21.42,0a2.9,2.9,0,1,0,2.9,2.9A2.89,2.89,0,0,0,1539.22,84.33Zm21.43,0a2.9,2.9,0,1,0,2.89,2.9A2.9,2.9,0,0,0,1560.65,84.33Zm21.42,0a2.9,2.9,0,1,0,2.89,2.9A2.89,2.89,0,0,0,1582.07,84.33Zm21.42,0a2.9,2.9,0,1,0,2.9,2.9A2.9,2.9,0,0,0,1603.49,84.33Zm21.43,0a2.9,2.9,0,1,0,2.89,2.9A2.9,2.9,0,0,0,1624.92,84.33Zm21.42,0a2.9,2.9,0,1,0,2.9,2.9A2.89,2.89,0,0,0,1646.34,84.33Zm21.43,0a2.9,2.9,0,1,0,2.89,2.9A2.9,2.9,0,0,0,1667.77,84.33Zm21.42,0a2.9,2.9,0,1,0,2.89,2.9A2.89,2.89,0,0,0,1689.19,84.33Zm21.42,0a2.9,2.9,0,1,0,2.9,2.9A2.9,2.9,0,0,0,1710.61,84.33Zm21.43,0a2.9,2.9,0,1,0,2.89,2.9A2.9,2.9,0,0,0,1732,84.33ZM757.25,100.25a2.9,2.9,0,1,0,2.89,2.9A2.89,2.89,0,0,0,757.25,100.25Zm21.42,0a2.9,2.9,0,1,0,2.9,2.9A2.9,2.9,0,0,0,778.67,100.25Zm21.43,0a2.9,2.9,0,1,0,2.89,2.9A2.9,2.9,0,0,0,800.1,100.25Zm21.42,0a2.9,2.9,0,1,0,2.9,2.9A2.89,2.89,0,0,0,821.52,100.25Zm21.43,0a2.9,2.9,0,1,0,2.89,2.9A2.9,2.9,0,0,0,843,100.25Zm21.42,0a2.9,2.9,0,1,0,2.89,2.9A2.89,2.89,0,0,0,864.37,100.25Zm21.42,0a2.9,2.9,0,1,0,2.9,2.9A2.9,2.9,0,0,0,885.79,100.25Zm21.43,0a2.9,2.9,0,1,0,2.89,2.9A2.9,2.9,0,0,0,907.22,100.25Zm21.42,0a2.9,2.9,0,1,0,2.89,2.9A2.89,2.89,0,0,0,928.64,100.25Zm21.43,0a2.9,2.9,0,1,0,2.89,2.9A2.9,2.9,0,0,0,950.07,100.25Zm21.42,0a2.9,2.9,0,1,0,2.89,2.9A2.89,2.89,0,0,0,971.49,100.25Zm21.42,0a2.9,2.9,0,1,0,2.9,2.9A2.9,2.9,0,0,0,992.91,100.25Zm21.43,0a2.9,2.9,0,1,0,2.89,2.9A2.9,2.9,0,0,0,1014.34,100.25Zm21.42,0a2.9,2.9,0,1,0,2.89,2.9A2.89,2.89,0,0,0,1035.76,100.25Zm21.42,0a2.9,2.9,0,1,0,2.9,2.9A2.9,2.9,0,0,0,1057.18,100.25Zm21.43,0a2.9,2.9,0,1,0,2.89,2.9A2.89,2.89,0,0,0,1078.61,100.25Zm21.42,0a2.9,2.9,0,1,0,2.9,2.9A2.89,2.89,0,0,0,1100,100.25Zm21.43,0a2.9,2.9,0,1,0,2.89,2.9A2.9,2.9,0,0,0,1121.46,100.25Zm21.42,0a2.9,2.9,0,1,0,2.89,2.9A2.89,2.89,0,0,0,1142.88,100.25Zm21.42,0a2.9,2.9,0,1,0,2.9,2.9A2.9,2.9,0,0,0,1164.3,100.25Zm21.43,0a2.9,2.9,0,1,0,2.89,2.9A2.9,2.9,0,0,0,1185.73,100.25Zm21.42,0a2.9,2.9,0,1,0,2.9,2.9A2.89,2.89,0,0,0,1207.15,100.25Zm21.43,0a2.9,2.9,0,1,0,2.89,2.9A2.9,2.9,0,0,0,1228.58,100.25Zm21.42,0a2.9,2.9,0,1,0,2.89,2.9A2.89,2.89,0,0,0,1250,100.25Zm21.42,0a2.9,2.9,0,1,0,2.9,2.9A2.9,2.9,0,0,0,1271.42,100.25Zm21.43,0a2.9,2.9,0,1,0,2.89,2.9A2.9,2.9,0,0,0,1292.85,100.25Zm21.42,0a2.9,2.9,0,1,0,2.9,2.9A2.89,2.89,0,0,0,1314.27,100.25Zm21.43,0a2.9,2.9,0,1,0,2.89,2.9A2.9,2.9,0,0,0,1335.7,100.25Zm21.42,0a2.9,2.9,0,1,0,2.89,2.9A2.89,2.89,0,0,0,1357.12,100.25Zm21.42,0a2.9,2.9,0,1,0,2.9,2.9A2.9,2.9,0,0,0,1378.54,100.25Zm21.43,0a2.9,2.9,0,1,0,2.89,2.9A2.9,2.9,0,0,0,1400,100.25Zm21.42,0a2.9,2.9,0,1,0,2.89,2.9A2.89,2.89,0,0,0,1421.39,100.25Zm21.43,0a2.9,2.9,0,1,0,2.89,2.9A2.9,2.9,0,0,0,1442.82,100.25Zm21.42,0a2.9,2.9,0,1,0,2.89,2.9A2.89,2.89,0,0,0,1464.24,100.25Zm21.42,0a2.9,2.9,0,1,0,2.9,2.9A2.9,2.9,0,0,0,1485.66,100.25Zm21.43,0a2.9,2.9,0,1,0,2.89,2.9A2.9,2.9,0,0,0,1507.09,100.25Zm21.42,0a2.9,2.9,0,1,0,2.89,2.9A2.89,2.89,0,0,0,1528.51,100.25Zm21.42,0a2.9,2.9,0,1,0,2.9,2.9A2.9,2.9,0,0,0,1549.93,100.25Zm21.43,0a2.9,2.9,0,1,0,2.89,2.9A2.89,2.89,0,0,0,1571.36,100.25Zm21.42,0a2.9,2.9,0,1,0,2.9,2.9A2.89,2.89,0,0,0,1592.78,100.25Zm21.43,0a2.9,2.9,0,1,0,2.89,2.9A2.9,2.9,0,0,0,1614.21,100.25Zm21.42,0a2.9,2.9,0,1,0,2.89,2.9A2.89,2.89,0,0,0,1635.63,100.25Zm21.42,0a2.9,2.9,0,1,0,2.9,2.9A2.9,2.9,0,0,0,1657.05,100.25Zm21.43,0a2.9,2.9,0,1,0,2.89,2.9A2.9,2.9,0,0,0,1678.48,100.25Zm21.42,0a2.9,2.9,0,1,0,2.9,2.9A2.89,2.89,0,0,0,1699.9,100.25Zm21.43,0a2.9,2.9,0,1,0,2.89,2.9A2.9,2.9,0,0,0,1721.33,100.25Zm21.42,0a2.9,2.9,0,1,0,2.89,2.9A2.89,2.89,0,0,0,1742.75,100.25ZM768,116.18a2.89,2.89,0,1,0,2.9,2.89A2.89,2.89,0,0,0,768,116.18Zm21.43,0a2.89,2.89,0,1,0,2.89,2.89A2.89,2.89,0,0,0,789.39,116.18Zm21.42,0a2.89,2.89,0,1,0,2.89,2.89A2.89,2.89,0,0,0,810.81,116.18Zm21.42,0a2.89,2.89,0,1,0,2.9,2.89A2.89,2.89,0,0,0,832.23,116.18Zm21.43,0a2.89,2.89,0,1,0,2.89,2.89A2.89,2.89,0,0,0,853.66,116.18Zm21.42,0a2.89,2.89,0,1,0,2.9,2.89A2.89,2.89,0,0,0,875.08,116.18Zm21.43,0a2.89,2.89,0,1,0,2.89,2.89A2.89,2.89,0,0,0,896.51,116.18Zm21.42,0a2.89,2.89,0,1,0,2.89,2.89A2.89,2.89,0,0,0,917.93,116.18Zm21.42,0a2.89,2.89,0,1,0,2.9,2.89A2.89,2.89,0,0,0,939.35,116.18Zm21.43,0a2.89,2.89,0,1,0,2.89,2.89A2.89,2.89,0,0,0,960.78,116.18Zm21.42,0a2.89,2.89,0,1,0,2.89,2.89A2.89,2.89,0,0,0,982.2,116.18Zm21.42,0a2.89,2.89,0,1,0,2.9,2.89A2.89,2.89,0,0,0,1003.62,116.18Zm21.43,0a2.89,2.89,0,1,0,2.89,2.89A2.89,2.89,0,0,0,1025.05,116.18Zm21.42,0a2.89,2.89,0,1,0,2.9,2.89A2.89,2.89,0,0,0,1046.47,116.18Zm21.43,0a2.89,2.89,0,1,0,2.89,2.89A2.89,2.89,0,0,0,1067.9,116.18Zm21.42,0a2.89,2.89,0,1,0,2.89,2.89A2.89,2.89,0,0,0,1089.32,116.18Zm21.42,0a2.89,2.89,0,1,0,2.9,2.89A2.89,2.89,0,0,0,1110.74,116.18Zm21.43,0a2.89,2.89,0,1,0,2.89,2.89A2.89,2.89,0,0,0,1132.17,116.18Zm21.42,0a2.89,2.89,0,1,0,2.9,2.89A2.89,2.89,0,0,0,1153.59,116.18Zm21.43,0a2.89,2.89,0,1,0,2.89,2.89A2.89,2.89,0,0,0,1175,116.18Zm21.42,0a2.89,2.89,0,1,0,2.89,2.89A2.89,2.89,0,0,0,1196.44,116.18Zm21.42,0a2.89,2.89,0,1,0,2.9,2.89A2.89,2.89,0,0,0,1217.86,116.18Zm21.43,0a2.89,2.89,0,1,0,2.89,2.89A2.89,2.89,0,0,0,1239.29,116.18Zm21.42,0a2.89,2.89,0,1,0,2.9,2.89A2.89,2.89,0,0,0,1260.71,116.18Zm21.43,0a2.89,2.89,0,1,0,2.89,2.89A2.89,2.89,0,0,0,1282.14,116.18Zm21.42,0a2.89,2.89,0,1,0,2.89,2.89A2.89,2.89,0,0,0,1303.56,116.18Zm21.42,0a2.89,2.89,0,1,0,2.9,2.89A2.89,2.89,0,0,0,1325,116.18Zm21.43,0a2.89,2.89,0,1,0,2.89,2.89A2.89,2.89,0,0,0,1346.41,116.18Zm21.42,0a2.89,2.89,0,1,0,2.9,2.89A2.89,2.89,0,0,0,1367.83,116.18Zm21.43,0a2.89,2.89,0,1,0,2.89,2.89A2.89,2.89,0,0,0,1389.26,116.18Zm21.42,0a2.89,2.89,0,1,0,2.89,2.89A2.89,2.89,0,0,0,1410.68,116.18Zm21.42,0a2.89,2.89,0,1,0,2.9,2.89A2.89,2.89,0,0,0,1432.1,116.18Zm21.43,0a2.89,2.89,0,1,0,2.89,2.89A2.89,2.89,0,0,0,1453.53,116.18Zm21.42,0a2.89,2.89,0,1,0,2.89,2.89A2.89,2.89,0,0,0,1475,116.18Zm21.43,0a2.89,2.89,0,1,0,2.89,2.89A2.89,2.89,0,0,0,1496.38,116.18Zm21.42,0a2.89,2.89,0,1,0,2.89,2.89A2.89,2.89,0,0,0,1517.8,116.18Zm21.42,0a2.89,2.89,0,1,0,2.9,2.89A2.89,2.89,0,0,0,1539.22,116.18Zm21.43,0a2.89,2.89,0,1,0,2.89,2.89A2.89,2.89,0,0,0,1560.65,116.18Zm21.42,0a2.89,2.89,0,1,0,2.89,2.89A2.89,2.89,0,0,0,1582.07,116.18Zm21.42,0a2.89,2.89,0,1,0,2.9,2.89A2.89,2.89,0,0,0,1603.49,116.18Zm21.43,0a2.89,2.89,0,1,0,2.89,2.89A2.89,2.89,0,0,0,1624.92,116.18Zm21.42,0a2.89,2.89,0,1,0,2.9,2.89A2.89,2.89,0,0,0,1646.34,116.18Zm21.43,0a2.89,2.89,0,1,0,2.89,2.89A2.89,2.89,0,0,0,1667.77,116.18Zm21.42,0a2.89,2.89,0,1,0,2.89,2.89A2.89,2.89,0,0,0,1689.19,116.18Zm21.42,0a2.89,2.89,0,1,0,2.9,2.89A2.89,2.89,0,0,0,1710.61,116.18Zm21.43,0a2.89,2.89,0,1,0,2.89,2.89A2.89,2.89,0,0,0,1732,116.18ZM757.25,132.1a2.89,2.89,0,1,0,2.89,2.89A2.89,2.89,0,0,0,757.25,132.1Zm21.42,0a2.89,2.89,0,1,0,2.9,2.89A2.89,2.89,0,0,0,778.67,132.1Zm21.43,0A2.89,2.89,0,1,0,803,135,2.89,2.89,0,0,0,800.1,132.1Zm21.42,0a2.89,2.89,0,1,0,2.9,2.89A2.89,2.89,0,0,0,821.52,132.1Zm21.43,0a2.89,2.89,0,1,0,2.89,2.89A2.89,2.89,0,0,0,843,132.1Zm21.42,0a2.89,2.89,0,1,0,2.89,2.89A2.89,2.89,0,0,0,864.37,132.1Zm21.42,0a2.89,2.89,0,1,0,2.9,2.89A2.89,2.89,0,0,0,885.79,132.1Zm21.43,0a2.89,2.89,0,1,0,2.89,2.89A2.89,2.89,0,0,0,907.22,132.1Zm21.42,0a2.89,2.89,0,1,0,2.89,2.89A2.89,2.89,0,0,0,928.64,132.1Zm21.43,0A2.89,2.89,0,1,0,953,135,2.89,2.89,0,0,0,950.07,132.1Zm21.42,0a2.89,2.89,0,1,0,2.89,2.89A2.89,2.89,0,0,0,971.49,132.1Zm21.42,0a2.89,2.89,0,1,0,2.9,2.89A2.89,2.89,0,0,0,992.91,132.1Zm21.43,0a2.89,2.89,0,1,0,2.89,2.89A2.89,2.89,0,0,0,1014.34,132.1Zm21.42,0a2.89,2.89,0,1,0,2.89,2.89A2.89,2.89,0,0,0,1035.76,132.1Zm21.42,0a2.89,2.89,0,1,0,2.9,2.89A2.89,2.89,0,0,0,1057.18,132.1Zm21.43,0a2.89,2.89,0,1,0,2.89,2.89A2.89,2.89,0,0,0,1078.61,132.1Zm21.42,0a2.89,2.89,0,1,0,2.9,2.89A2.89,2.89,0,0,0,1100,132.1Zm21.43,0a2.89,2.89,0,1,0,2.89,2.89A2.89,2.89,0,0,0,1121.46,132.1Zm21.42,0a2.89,2.89,0,1,0,2.89,2.89A2.89,2.89,0,0,0,1142.88,132.1Zm21.42,0a2.89,2.89,0,1,0,2.9,2.89A2.89,2.89,0,0,0,1164.3,132.1Zm21.43,0a2.89,2.89,0,1,0,2.89,2.89A2.89,2.89,0,0,0,1185.73,132.1Zm21.42,0a2.89,2.89,0,1,0,2.9,2.89A2.89,2.89,0,0,0,1207.15,132.1Zm21.43,0a2.89,2.89,0,1,0,2.89,2.89A2.89,2.89,0,0,0,1228.58,132.1Zm21.42,0a2.89,2.89,0,1,0,2.89,2.89A2.89,2.89,0,0,0,1250,132.1Zm21.42,0a2.89,2.89,0,1,0,2.9,2.89A2.89,2.89,0,0,0,1271.42,132.1Zm21.43,0a2.89,2.89,0,1,0,2.89,2.89A2.89,2.89,0,0,0,1292.85,132.1Zm21.42,0a2.89,2.89,0,1,0,2.9,2.89A2.89,2.89,0,0,0,1314.27,132.1Zm21.43,0a2.89,2.89,0,1,0,2.89,2.89A2.89,2.89,0,0,0,1335.7,132.1Zm21.42,0A2.89,2.89,0,1,0,1360,135,2.89,2.89,0,0,0,1357.12,132.1Zm21.42,0a2.89,2.89,0,1,0,2.9,2.89A2.89,2.89,0,0,0,1378.54,132.1Zm21.43,0a2.89,2.89,0,1,0,2.89,2.89A2.89,2.89,0,0,0,1400,132.1Zm21.42,0a2.89,2.89,0,1,0,2.89,2.89A2.89,2.89,0,0,0,1421.39,132.1Zm21.43,0a2.89,2.89,0,1,0,2.89,2.89A2.89,2.89,0,0,0,1442.82,132.1Zm21.42,0a2.89,2.89,0,1,0,2.89,2.89A2.89,2.89,0,0,0,1464.24,132.1Zm21.42,0a2.89,2.89,0,1,0,2.9,2.89A2.89,2.89,0,0,0,1485.66,132.1Zm21.43,0A2.89,2.89,0,1,0,1510,135,2.89,2.89,0,0,0,1507.09,132.1Zm21.42,0a2.89,2.89,0,1,0,2.89,2.89A2.89,2.89,0,0,0,1528.51,132.1Zm21.42,0a2.89,2.89,0,1,0,2.9,2.89A2.89,2.89,0,0,0,1549.93,132.1Zm21.43,0a2.89,2.89,0,1,0,2.89,2.89A2.89,2.89,0,0,0,1571.36,132.1Zm21.42,0a2.89,2.89,0,1,0,2.9,2.89A2.89,2.89,0,0,0,1592.78,132.1Zm21.43,0a2.89,2.89,0,1,0,2.89,2.89A2.89,2.89,0,0,0,1614.21,132.1Zm21.42,0a2.89,2.89,0,1,0,2.89,2.89A2.89,2.89,0,0,0,1635.63,132.1Zm21.42,0A2.89,2.89,0,1,0,1660,135,2.89,2.89,0,0,0,1657.05,132.1Zm21.43,0a2.89,2.89,0,1,0,2.89,2.89A2.89,2.89,0,0,0,1678.48,132.1Zm21.42,0a2.89,2.89,0,1,0,2.9,2.89A2.89,2.89,0,0,0,1699.9,132.1Zm21.43,0a2.89,2.89,0,1,0,2.89,2.89A2.89,2.89,0,0,0,1721.33,132.1Zm21.42,0a2.89,2.89,0,1,0,2.89,2.89A2.89,2.89,0,0,0,1742.75,132.1ZM768,148a2.9,2.9,0,1,0,2.9,2.89A2.89,2.89,0,0,0,768,148Zm21.43,0a2.9,2.9,0,1,0,2.89,2.89A2.89,2.89,0,0,0,789.39,148Zm21.42,0a2.9,2.9,0,1,0,2.89,2.89A2.89,2.89,0,0,0,810.81,148Zm21.42,0a2.9,2.9,0,1,0,2.9,2.89A2.89,2.89,0,0,0,832.23,148Zm21.43,0a2.9,2.9,0,1,0,2.89,2.89A2.89,2.89,0,0,0,853.66,148Zm21.42,0a2.9,2.9,0,1,0,2.9,2.89A2.89,2.89,0,0,0,875.08,148Zm21.43,0a2.9,2.9,0,1,0,2.89,2.89A2.89,2.89,0,0,0,896.51,148Zm21.42,0a2.9,2.9,0,1,0,2.89,2.89A2.89,2.89,0,0,0,917.93,148Zm21.42,0a2.9,2.9,0,1,0,2.9,2.89A2.89,2.89,0,0,0,939.35,148Zm21.43,0a2.9,2.9,0,1,0,2.89,2.89A2.89,2.89,0,0,0,960.78,148Zm21.42,0a2.9,2.9,0,1,0,2.89,2.89A2.89,2.89,0,0,0,982.2,148Zm21.42,0a2.9,2.9,0,1,0,2.9,2.89A2.89,2.89,0,0,0,1003.62,148Zm21.43,0a2.9,2.9,0,1,0,2.89,2.89A2.89,2.89,0,0,0,1025.05,148Zm21.42,0a2.9,2.9,0,1,0,2.9,2.89A2.89,2.89,0,0,0,1046.47,148Zm21.43,0a2.9,2.9,0,1,0,2.89,2.89A2.89,2.89,0,0,0,1067.9,148Zm21.42,0a2.9,2.9,0,1,0,2.89,2.89A2.89,2.89,0,0,0,1089.32,148Zm21.42,0a2.9,2.9,0,1,0,2.9,2.89A2.89,2.89,0,0,0,1110.74,148Zm21.43,0a2.9,2.9,0,1,0,2.89,2.89A2.89,2.89,0,0,0,1132.17,148Zm21.42,0a2.9,2.9,0,1,0,2.9,2.89A2.89,2.89,0,0,0,1153.59,148Zm21.43,0a2.9,2.9,0,1,0,2.89,2.89A2.89,2.89,0,0,0,1175,148Zm21.42,0a2.9,2.9,0,1,0,2.89,2.89A2.89,2.89,0,0,0,1196.44,148Zm21.42,0a2.9,2.9,0,1,0,2.9,2.89A2.89,2.89,0,0,0,1217.86,148Zm21.43,0a2.9,2.9,0,1,0,2.89,2.89A2.89,2.89,0,0,0,1239.29,148Zm21.42,0a2.9,2.9,0,1,0,2.9,2.89A2.89,2.89,0,0,0,1260.71,148Zm21.43,0a2.9,2.9,0,1,0,2.89,2.89A2.89,2.89,0,0,0,1282.14,148Zm21.42,0a2.9,2.9,0,1,0,2.89,2.89A2.89,2.89,0,0,0,1303.56,148Zm21.42,0a2.9,2.9,0,1,0,2.9,2.89A2.89,2.89,0,0,0,1325,148Zm21.43,0a2.9,2.9,0,1,0,2.89,2.89A2.89,2.89,0,0,0,1346.41,148Zm21.42,0a2.9,2.9,0,1,0,2.9,2.89A2.89,2.89,0,0,0,1367.83,148Zm21.43,0a2.9,2.9,0,1,0,2.89,2.89A2.89,2.89,0,0,0,1389.26,148Zm21.42,0a2.9,2.9,0,1,0,2.89,2.89A2.89,2.89,0,0,0,1410.68,148Zm21.42,0a2.9,2.9,0,1,0,2.9,2.89A2.89,2.89,0,0,0,1432.1,148Zm21.43,0a2.9,2.9,0,1,0,2.89,2.89A2.89,2.89,0,0,0,1453.53,148Zm21.42,0a2.9,2.9,0,1,0,2.89,2.89A2.89,2.89,0,0,0,1475,148Zm21.43,0a2.9,2.9,0,1,0,2.89,2.89A2.89,2.89,0,0,0,1496.38,148Zm21.42,0a2.9,2.9,0,1,0,2.89,2.89A2.89,2.89,0,0,0,1517.8,148Zm21.42,0a2.9,2.9,0,1,0,2.9,2.89A2.89,2.89,0,0,0,1539.22,148Zm21.43,0a2.9,2.9,0,1,0,2.89,2.89A2.89,2.89,0,0,0,1560.65,148Zm21.42,0a2.9,2.9,0,1,0,2.89,2.89A2.89,2.89,0,0,0,1582.07,148Zm21.42,0a2.9,2.9,0,1,0,2.9,2.89A2.89,2.89,0,0,0,1603.49,148Zm21.43,0a2.9,2.9,0,1,0,2.89,2.89A2.89,2.89,0,0,0,1624.92,148Zm21.42,0a2.9,2.9,0,1,0,2.9,2.89A2.89,2.89,0,0,0,1646.34,148Zm21.43,0a2.9,2.9,0,1,0,2.89,2.89A2.89,2.89,0,0,0,1667.77,148Zm21.42,0a2.9,2.9,0,1,0,2.89,2.89A2.89,2.89,0,0,0,1689.19,148Zm21.42,0a2.9,2.9,0,1,0,2.9,2.89A2.89,2.89,0,0,0,1710.61,148Zm21.43,0a2.9,2.9,0,1,0,2.89,2.89A2.89,2.89,0,0,0,1732,148ZM757.25,163.94a2.9,2.9,0,1,0,2.89,2.89A2.89,2.89,0,0,0,757.25,163.94Zm21.42,0a2.9,2.9,0,1,0,2.9,2.89A2.9,2.9,0,0,0,778.67,163.94Zm21.43,0a2.9,2.9,0,1,0,2.89,2.89A2.9,2.9,0,0,0,800.1,163.94Zm21.42,0a2.9,2.9,0,1,0,2.9,2.89A2.89,2.89,0,0,0,821.52,163.94Zm21.43,0a2.9,2.9,0,1,0,2.89,2.89A2.9,2.9,0,0,0,843,163.94Zm21.42,0a2.9,2.9,0,1,0,2.89,2.89A2.89,2.89,0,0,0,864.37,163.94Zm21.42,0a2.9,2.9,0,1,0,2.9,2.89A2.9,2.9,0,0,0,885.79,163.94Zm21.43,0a2.9,2.9,0,1,0,2.89,2.89A2.9,2.9,0,0,0,907.22,163.94Zm21.42,0a2.9,2.9,0,1,0,2.89,2.89A2.89,2.89,0,0,0,928.64,163.94Zm21.43,0a2.9,2.9,0,1,0,2.89,2.89A2.9,2.9,0,0,0,950.07,163.94Zm21.42,0a2.9,2.9,0,1,0,2.89,2.89A2.89,2.89,0,0,0,971.49,163.94Zm21.42,0a2.9,2.9,0,1,0,2.9,2.89A2.9,2.9,0,0,0,992.91,163.94Zm21.43,0a2.9,2.9,0,1,0,2.89,2.89A2.9,2.9,0,0,0,1014.34,163.94Zm21.42,0a2.9,2.9,0,1,0,2.89,2.89A2.89,2.89,0,0,0,1035.76,163.94Zm21.42,0a2.9,2.9,0,1,0,2.9,2.89A2.9,2.9,0,0,0,1057.18,163.94Zm21.43,0a2.9,2.9,0,1,0,2.89,2.89A2.89,2.89,0,0,0,1078.61,163.94Zm21.42,0a2.9,2.9,0,1,0,2.9,2.89A2.89,2.89,0,0,0,1100,163.94Zm21.43,0a2.9,2.9,0,1,0,2.89,2.89A2.9,2.9,0,0,0,1121.46,163.94Zm21.42,0a2.9,2.9,0,1,0,2.89,2.89A2.89,2.89,0,0,0,1142.88,163.94Zm21.42,0a2.9,2.9,0,1,0,2.9,2.89A2.9,2.9,0,0,0,1164.3,163.94Zm21.43,0a2.9,2.9,0,1,0,2.89,2.89A2.9,2.9,0,0,0,1185.73,163.94Zm21.42,0a2.9,2.9,0,1,0,2.9,2.89A2.89,2.89,0,0,0,1207.15,163.94Zm21.43,0a2.9,2.9,0,1,0,2.89,2.89A2.9,2.9,0,0,0,1228.58,163.94Zm21.42,0a2.9,2.9,0,1,0,2.89,2.89A2.89,2.89,0,0,0,1250,163.94Zm21.42,0a2.9,2.9,0,1,0,2.9,2.89A2.9,2.9,0,0,0,1271.42,163.94Zm21.43,0a2.9,2.9,0,1,0,2.89,2.89A2.9,2.9,0,0,0,1292.85,163.94Zm21.42,0a2.9,2.9,0,1,0,2.9,2.89A2.89,2.89,0,0,0,1314.27,163.94Zm21.43,0a2.9,2.9,0,1,0,2.89,2.89A2.9,2.9,0,0,0,1335.7,163.94Zm21.42,0a2.9,2.9,0,1,0,2.89,2.89A2.89,2.89,0,0,0,1357.12,163.94Zm21.42,0a2.9,2.9,0,1,0,2.9,2.89A2.9,2.9,0,0,0,1378.54,163.94Zm21.43,0a2.9,2.9,0,1,0,2.89,2.89A2.9,2.9,0,0,0,1400,163.94Zm21.42,0a2.9,2.9,0,1,0,2.89,2.89A2.89,2.89,0,0,0,1421.39,163.94Zm21.43,0a2.9,2.9,0,1,0,2.89,2.89A2.9,2.9,0,0,0,1442.82,163.94Zm21.42,0a2.9,2.9,0,1,0,2.89,2.89A2.89,2.89,0,0,0,1464.24,163.94Zm21.42,0a2.9,2.9,0,1,0,2.9,2.89A2.9,2.9,0,0,0,1485.66,163.94Zm21.43,0a2.9,2.9,0,1,0,2.89,2.89A2.9,2.9,0,0,0,1507.09,163.94Zm21.42,0a2.9,2.9,0,1,0,2.89,2.89A2.89,2.89,0,0,0,1528.51,163.94Zm21.42,0a2.9,2.9,0,1,0,2.9,2.89A2.9,2.9,0,0,0,1549.93,163.94Zm21.43,0a2.9,2.9,0,1,0,2.89,2.89A2.89,2.89,0,0,0,1571.36,163.94Zm21.42,0a2.9,2.9,0,1,0,2.9,2.89A2.89,2.89,0,0,0,1592.78,163.94Zm21.43,0a2.9,2.9,0,1,0,2.89,2.89A2.9,2.9,0,0,0,1614.21,163.94Zm21.42,0a2.9,2.9,0,1,0,2.89,2.89A2.89,2.89,0,0,0,1635.63,163.94Zm21.42,0a2.9,2.9,0,1,0,2.9,2.89A2.9,2.9,0,0,0,1657.05,163.94Zm21.43,0a2.9,2.9,0,1,0,2.89,2.89A2.9,2.9,0,0,0,1678.48,163.94Zm21.42,0a2.9,2.9,0,1,0,2.9,2.89A2.89,2.89,0,0,0,1699.9,163.94Zm21.43,0a2.9,2.9,0,1,0,2.89,2.89A2.9,2.9,0,0,0,1721.33,163.94Zm21.42,0a2.9,2.9,0,1,0,2.89,2.89A2.89,2.89,0,0,0,1742.75,163.94ZM768,179.86a2.9,2.9,0,1,0,2.9,2.89A2.89,2.89,0,0,0,768,179.86Zm21.43,0a2.9,2.9,0,1,0,2.89,2.89A2.9,2.9,0,0,0,789.39,179.86Zm21.42,0a2.9,2.9,0,1,0,2.89,2.89A2.89,2.89,0,0,0,810.81,179.86Zm21.42,0a2.9,2.9,0,1,0,2.9,2.89A2.9,2.9,0,0,0,832.23,179.86Zm21.43,0a2.9,2.9,0,1,0,2.89,2.89A2.9,2.9,0,0,0,853.66,179.86Zm21.42,0a2.9,2.9,0,1,0,2.9,2.89A2.89,2.89,0,0,0,875.08,179.86Zm21.43,0a2.9,2.9,0,1,0,2.89,2.89A2.9,2.9,0,0,0,896.51,179.86Zm21.42,0a2.9,2.9,0,1,0,2.89,2.89A2.89,2.89,0,0,0,917.93,179.86Zm21.42,0a2.9,2.9,0,1,0,2.9,2.89A2.9,2.9,0,0,0,939.35,179.86Zm21.43,0a2.9,2.9,0,1,0,2.89,2.89A2.9,2.9,0,0,0,960.78,179.86Zm21.42,0a2.9,2.9,0,1,0,2.89,2.89A2.89,2.89,0,0,0,982.2,179.86Zm21.42,0a2.9,2.9,0,1,0,2.9,2.89A2.9,2.9,0,0,0,1003.62,179.86Zm21.43,0a2.9,2.9,0,1,0,2.89,2.89A2.89,2.89,0,0,0,1025.05,179.86Zm21.42,0a2.9,2.9,0,1,0,2.9,2.89A2.89,2.89,0,0,0,1046.47,179.86Zm21.43,0a2.9,2.9,0,1,0,2.89,2.89A2.9,2.9,0,0,0,1067.9,179.86Zm21.42,0a2.9,2.9,0,1,0,2.89,2.89A2.89,2.89,0,0,0,1089.32,179.86Zm21.42,0a2.9,2.9,0,1,0,2.9,2.89A2.9,2.9,0,0,0,1110.74,179.86Zm21.43,0a2.9,2.9,0,1,0,2.89,2.89A2.9,2.9,0,0,0,1132.17,179.86Zm21.42,0a2.9,2.9,0,1,0,2.9,2.89A2.89,2.89,0,0,0,1153.59,179.86Zm21.43,0a2.9,2.9,0,1,0,2.89,2.89A2.9,2.9,0,0,0,1175,179.86Zm21.42,0a2.9,2.9,0,1,0,2.89,2.89A2.89,2.89,0,0,0,1196.44,179.86Zm21.42,0a2.9,2.9,0,1,0,2.9,2.89A2.9,2.9,0,0,0,1217.86,179.86Zm21.43,0a2.9,2.9,0,1,0,2.89,2.89A2.9,2.9,0,0,0,1239.29,179.86Zm21.42,0a2.9,2.9,0,1,0,2.9,2.89A2.89,2.89,0,0,0,1260.71,179.86Zm21.43,0a2.9,2.9,0,1,0,2.89,2.89A2.9,2.9,0,0,0,1282.14,179.86Zm21.42,0a2.9,2.9,0,1,0,2.89,2.89A2.89,2.89,0,0,0,1303.56,179.86Zm21.42,0a2.9,2.9,0,1,0,2.9,2.89A2.9,2.9,0,0,0,1325,179.86Zm21.43,0a2.9,2.9,0,1,0,2.89,2.89A2.9,2.9,0,0,0,1346.41,179.86Zm21.42,0a2.9,2.9,0,1,0,2.9,2.89A2.89,2.89,0,0,0,1367.83,179.86Zm21.43,0a2.9,2.9,0,1,0,2.89,2.89A2.9,2.9,0,0,0,1389.26,179.86Zm21.42,0a2.9,2.9,0,1,0,2.89,2.89A2.89,2.89,0,0,0,1410.68,179.86Zm21.42,0a2.9,2.9,0,1,0,2.9,2.89A2.9,2.9,0,0,0,1432.1,179.86Zm21.43,0a2.9,2.9,0,1,0,2.89,2.89A2.9,2.9,0,0,0,1453.53,179.86Zm21.42,0a2.9,2.9,0,1,0,2.89,2.89A2.89,2.89,0,0,0,1475,179.86Zm21.43,0a2.9,2.9,0,1,0,2.89,2.89A2.9,2.9,0,0,0,1496.38,179.86Zm21.42,0a2.9,2.9,0,1,0,2.89,2.89A2.89,2.89,0,0,0,1517.8,179.86Zm21.42,0a2.9,2.9,0,1,0,2.9,2.89A2.89,2.89,0,0,0,1539.22,179.86Zm21.43,0a2.9,2.9,0,1,0,2.89,2.89A2.9,2.9,0,0,0,1560.65,179.86Zm21.42,0a2.9,2.9,0,1,0,2.89,2.89A2.89,2.89,0,0,0,1582.07,179.86Zm21.42,0a2.9,2.9,0,1,0,2.9,2.89A2.9,2.9,0,0,0,1603.49,179.86Zm21.43,0a2.9,2.9,0,1,0,2.89,2.89A2.9,2.9,0,0,0,1624.92,179.86Zm21.42,0a2.9,2.9,0,1,0,2.9,2.89A2.89,2.89,0,0,0,1646.34,179.86Zm21.43,0a2.9,2.9,0,1,0,2.89,2.89A2.9,2.9,0,0,0,1667.77,179.86Zm21.42,0a2.9,2.9,0,1,0,2.89,2.89A2.89,2.89,0,0,0,1689.19,179.86Zm21.42,0a2.9,2.9,0,1,0,2.9,2.89A2.9,2.9,0,0,0,1710.61,179.86Zm21.43,0a2.9,2.9,0,1,0,2.89,2.89A2.9,2.9,0,0,0,1732,179.86ZM757.25,195.78a2.9,2.9,0,1,0,2.89,2.9A2.89,2.89,0,0,0,757.25,195.78Zm21.42,0a2.9,2.9,0,1,0,2.9,2.9A2.9,2.9,0,0,0,778.67,195.78Zm21.43,0a2.9,2.9,0,1,0,2.89,2.9A2.9,2.9,0,0,0,800.1,195.78Zm21.42,0a2.9,2.9,0,1,0,2.9,2.9A2.89,2.89,0,0,0,821.52,195.78Zm21.43,0a2.9,2.9,0,1,0,2.89,2.9A2.9,2.9,0,0,0,843,195.78Zm21.42,0a2.9,2.9,0,1,0,2.89,2.9A2.89,2.89,0,0,0,864.37,195.78Zm21.42,0a2.9,2.9,0,1,0,2.9,2.9A2.9,2.9,0,0,0,885.79,195.78Zm21.43,0a2.9,2.9,0,1,0,2.89,2.9A2.9,2.9,0,0,0,907.22,195.78Zm21.42,0a2.9,2.9,0,1,0,2.89,2.9A2.89,2.89,0,0,0,928.64,195.78Zm21.43,0a2.9,2.9,0,1,0,2.89,2.9A2.9,2.9,0,0,0,950.07,195.78Zm21.42,0a2.9,2.9,0,1,0,2.89,2.9A2.89,2.89,0,0,0,971.49,195.78Zm21.42,0a2.9,2.9,0,1,0,2.9,2.9A2.9,2.9,0,0,0,992.91,195.78Zm21.43,0a2.9,2.9,0,1,0,2.89,2.9A2.9,2.9,0,0,0,1014.34,195.78Zm21.42,0a2.9,2.9,0,1,0,2.89,2.9A2.89,2.89,0,0,0,1035.76,195.78Zm21.42,0a2.9,2.9,0,1,0,2.9,2.9A2.9,2.9,0,0,0,1057.18,195.78Zm21.43,0a2.9,2.9,0,1,0,2.89,2.9A2.89,2.89,0,0,0,1078.61,195.78Zm21.42,0a2.9,2.9,0,1,0,2.9,2.9A2.89,2.89,0,0,0,1100,195.78Zm21.43,0a2.9,2.9,0,1,0,2.89,2.9A2.9,2.9,0,0,0,1121.46,195.78Zm21.42,0a2.9,2.9,0,1,0,2.89,2.9A2.89,2.89,0,0,0,1142.88,195.78Zm21.42,0a2.9,2.9,0,1,0,2.9,2.9A2.9,2.9,0,0,0,1164.3,195.78Zm21.43,0a2.9,2.9,0,1,0,2.89,2.9A2.9,2.9,0,0,0,1185.73,195.78Zm21.42,0a2.9,2.9,0,1,0,2.9,2.9A2.89,2.89,0,0,0,1207.15,195.78Zm21.43,0a2.9,2.9,0,1,0,2.89,2.9A2.9,2.9,0,0,0,1228.58,195.78Zm21.42,0a2.9,2.9,0,1,0,2.89,2.9A2.89,2.89,0,0,0,1250,195.78Zm21.42,0a2.9,2.9,0,1,0,2.9,2.9A2.9,2.9,0,0,0,1271.42,195.78Zm21.43,0a2.9,2.9,0,1,0,2.89,2.9A2.9,2.9,0,0,0,1292.85,195.78Zm21.42,0a2.9,2.9,0,1,0,2.9,2.9A2.89,2.89,0,0,0,1314.27,195.78Zm21.43,0a2.9,2.9,0,1,0,2.89,2.9A2.9,2.9,0,0,0,1335.7,195.78Zm21.42,0a2.9,2.9,0,1,0,2.89,2.9A2.89,2.89,0,0,0,1357.12,195.78Zm21.42,0a2.9,2.9,0,1,0,2.9,2.9A2.9,2.9,0,0,0,1378.54,195.78Zm21.43,0a2.9,2.9,0,1,0,2.89,2.9A2.9,2.9,0,0,0,1400,195.78Zm21.42,0a2.9,2.9,0,1,0,2.89,2.9A2.89,2.89,0,0,0,1421.39,195.78Zm21.43,0a2.9,2.9,0,1,0,2.89,2.9A2.9,2.9,0,0,0,1442.82,195.78Zm21.42,0a2.9,2.9,0,1,0,2.89,2.9A2.89,2.89,0,0,0,1464.24,195.78Zm21.42,0a2.9,2.9,0,1,0,2.9,2.9A2.9,2.9,0,0,0,1485.66,195.78Zm21.43,0a2.9,2.9,0,1,0,2.89,2.9A2.9,2.9,0,0,0,1507.09,195.78Zm21.42,0a2.9,2.9,0,1,0,2.89,2.9A2.89,2.89,0,0,0,1528.51,195.78Zm21.42,0a2.9,2.9,0,1,0,2.9,2.9A2.9,2.9,0,0,0,1549.93,195.78Zm21.43,0a2.9,2.9,0,1,0,2.89,2.9A2.89,2.89,0,0,0,1571.36,195.78Zm21.42,0a2.9,2.9,0,1,0,2.9,2.9A2.89,2.89,0,0,0,1592.78,195.78Zm21.43,0a2.9,2.9,0,1,0,2.89,2.9A2.9,2.9,0,0,0,1614.21,195.78Zm21.42,0a2.9,2.9,0,1,0,2.89,2.9A2.89,2.89,0,0,0,1635.63,195.78Zm21.42,0a2.9,2.9,0,1,0,2.9,2.9A2.9,2.9,0,0,0,1657.05,195.78Zm21.43,0a2.9,2.9,0,1,0,2.89,2.9A2.9,2.9,0,0,0,1678.48,195.78Zm21.42,0a2.9,2.9,0,1,0,2.9,2.9A2.89,2.89,0,0,0,1699.9,195.78Zm21.43,0a2.9,2.9,0,1,0,2.89,2.9A2.9,2.9,0,0,0,1721.33,195.78Zm21.42,0a2.9,2.9,0,1,0,2.89,2.9A2.89,2.89,0,0,0,1742.75,195.78ZM768,211.7a2.9,2.9,0,1,0,2.9,2.9A2.89,2.89,0,0,0,768,211.7Zm21.43,0a2.9,2.9,0,1,0,2.89,2.9A2.9,2.9,0,0,0,789.39,211.7Zm21.42,0a2.9,2.9,0,1,0,2.89,2.9A2.89,2.89,0,0,0,810.81,211.7Zm21.42,0a2.9,2.9,0,1,0,2.9,2.9A2.9,2.9,0,0,0,832.23,211.7Zm21.43,0a2.9,2.9,0,1,0,2.89,2.9A2.9,2.9,0,0,0,853.66,211.7Zm21.42,0a2.9,2.9,0,1,0,2.9,2.9A2.89,2.89,0,0,0,875.08,211.7Zm21.43,0a2.9,2.9,0,1,0,2.89,2.9A2.9,2.9,0,0,0,896.51,211.7Zm21.42,0a2.9,2.9,0,1,0,2.89,2.9A2.89,2.89,0,0,0,917.93,211.7Zm21.42,0a2.9,2.9,0,1,0,2.9,2.9A2.9,2.9,0,0,0,939.35,211.7Zm21.43,0a2.9,2.9,0,1,0,2.89,2.9A2.9,2.9,0,0,0,960.78,211.7Zm21.42,0a2.9,2.9,0,1,0,2.89,2.9A2.89,2.89,0,0,0,982.2,211.7Zm21.42,0a2.9,2.9,0,1,0,2.9,2.9A2.9,2.9,0,0,0,1003.62,211.7Zm21.43,0a2.9,2.9,0,1,0,2.89,2.9A2.89,2.89,0,0,0,1025.05,211.7Zm21.42,0a2.9,2.9,0,1,0,2.9,2.9A2.89,2.89,0,0,0,1046.47,211.7Zm21.43,0a2.9,2.9,0,1,0,2.89,2.9A2.9,2.9,0,0,0,1067.9,211.7Zm21.42,0a2.9,2.9,0,1,0,2.89,2.9A2.89,2.89,0,0,0,1089.32,211.7Zm21.42,0a2.9,2.9,0,1,0,2.9,2.9A2.9,2.9,0,0,0,1110.74,211.7Zm21.43,0a2.9,2.9,0,1,0,2.89,2.9A2.9,2.9,0,0,0,1132.17,211.7Zm21.42,0a2.9,2.9,0,1,0,2.9,2.9A2.89,2.89,0,0,0,1153.59,211.7Zm21.43,0a2.9,2.9,0,1,0,2.89,2.9A2.9,2.9,0,0,0,1175,211.7Zm21.42,0a2.9,2.9,0,1,0,2.89,2.9A2.89,2.89,0,0,0,1196.44,211.7Zm21.42,0a2.9,2.9,0,1,0,2.9,2.9A2.9,2.9,0,0,0,1217.86,211.7Zm21.43,0a2.9,2.9,0,1,0,2.89,2.9A2.9,2.9,0,0,0,1239.29,211.7Zm21.42,0a2.9,2.9,0,1,0,2.9,2.9A2.89,2.89,0,0,0,1260.71,211.7Zm21.43,0a2.9,2.9,0,1,0,2.89,2.9A2.9,2.9,0,0,0,1282.14,211.7Zm21.42,0a2.9,2.9,0,1,0,2.89,2.9A2.89,2.89,0,0,0,1303.56,211.7Zm21.42,0a2.9,2.9,0,1,0,2.9,2.9A2.9,2.9,0,0,0,1325,211.7Zm21.43,0a2.9,2.9,0,1,0,2.89,2.9A2.9,2.9,0,0,0,1346.41,211.7Zm21.42,0a2.9,2.9,0,1,0,2.9,2.9A2.89,2.89,0,0,0,1367.83,211.7Zm21.43,0a2.9,2.9,0,1,0,2.89,2.9A2.9,2.9,0,0,0,1389.26,211.7Zm21.42,0a2.9,2.9,0,1,0,2.89,2.9A2.89,2.89,0,0,0,1410.68,211.7Zm21.42,0a2.9,2.9,0,1,0,2.9,2.9A2.9,2.9,0,0,0,1432.1,211.7Zm21.43,0a2.9,2.9,0,1,0,2.89,2.9A2.9,2.9,0,0,0,1453.53,211.7Zm21.42,0a2.9,2.9,0,1,0,2.89,2.9A2.89,2.89,0,0,0,1475,211.7Zm21.43,0a2.9,2.9,0,1,0,2.89,2.9A2.9,2.9,0,0,0,1496.38,211.7Zm21.42,0a2.9,2.9,0,1,0,2.89,2.9A2.89,2.89,0,0,0,1517.8,211.7Zm21.42,0a2.9,2.9,0,1,0,2.9,2.9A2.89,2.89,0,0,0,1539.22,211.7Zm21.43,0a2.9,2.9,0,1,0,2.89,2.9A2.9,2.9,0,0,0,1560.65,211.7Zm21.42,0a2.9,2.9,0,1,0,2.89,2.9A2.89,2.89,0,0,0,1582.07,211.7Zm21.42,0a2.9,2.9,0,1,0,2.9,2.9A2.9,2.9,0,0,0,1603.49,211.7Zm21.43,0a2.9,2.9,0,1,0,2.89,2.9A2.9,2.9,0,0,0,1624.92,211.7Zm21.42,0a2.9,2.9,0,1,0,2.9,2.9A2.89,2.89,0,0,0,1646.34,211.7Zm21.43,0a2.9,2.9,0,1,0,2.89,2.9A2.9,2.9,0,0,0,1667.77,211.7Zm21.42,0a2.9,2.9,0,1,0,2.89,2.9A2.89,2.89,0,0,0,1689.19,211.7Zm21.42,0a2.9,2.9,0,1,0,2.9,2.9A2.9,2.9,0,0,0,1710.61,211.7Zm21.43,0a2.9,2.9,0,1,0,2.89,2.9A2.9,2.9,0,0,0,1732,211.7Z"/></g></g><g class="cls-32"><polygon class="cls-23" points="884.67 222.22 1010.77 222.22 1122.47 0 1081.11 0 884.67 222.22"/><polygon class="cls-23" points="1155.72 222.22 1248.33 222.22 1349.29 0 1308.46 0 1155.72 222.22"/><polygon class="cls-23" points="1614.12 0 1373.54 222.22 1521.02 222.22 1655.84 0 1614.12 0"/></g><g class="cls-33"><polygon class="cls-34" points="2584.92 1198.13 2889.35 1600 -389.35 1600 -84.92 1198.13 493.05 878.02 2006.95 878.02 2584.92 1198.13"/><polygon class="cls-35" points="920.38 913.99 701.1 913.99 744.53 878.02 946.46 878.02 920.38 913.99"/><polygon class="cls-36" points="1025.8 913.99 920.38 913.99 946.46 878.02 1043.54 878.02 1025.8 913.99"/><polygon class="cls-36" points="2071.89 913.99 1782.88 913.99 1740.72 878.02 2006.95 878.02 2071.89 913.99"/><polygon class="cls-36" points="744.53 878.02 701.1 913.99 428.12 913.99 493.05 878.02 744.53 878.02"/><polygon class="cls-36" points="994.04 1152.04 155.79 1152.04 282.45 1071.86 1023.67 1071.86 994.04 1152.04"/><polygon class="cls-35" points="1284.51 1152.04 994.04 1152.04 1023.67 1071.86 1280.52 1071.86 1284.51 1152.04"/><polygon class="cls-36" points="2501.7 1152.04 2273.53 1152.04 2155.04 1071.86 2356.93 1071.86 2501.7 1152.04"/><polygon class="cls-35" points="805.91 1071.86 437.05 1071.86 622.1 1008.32 763.16 1008.32 805.91 1071.86"/><polygon class="cls-35" points="1886.33 1071.86 1457.94 1071.86 1436.37 1008.32 1893.45 1008.32 1886.33 1071.86"/><polygon class="cls-36" points="1457.94 1071.86 805.91 1071.86 763.16 1008.32 1436.37 1008.32 1457.94 1071.86"/><polygon class="cls-36" points="2356.93 1071.86 1886.34 1071.86 1893.46 1008.32 2242.2 1008.32 2356.93 1071.86"/><polygon class="cls-36" points="622.09 1008.32 437.05 1071.86 143.07 1071.86 257.8 1008.32 622.09 1008.32"/><polygon class="cls-36" points="719.57 1600 -389.35 1600 -238.02 1400.24 -232.33 1397.72 661.8 1397.72 719.57 1600"/><polygon class="cls-35" points="1016.18 1600 719.57 1600 661.8 1397.72 1057.64 1397.72 1016.18 1600"/><polygon class="cls-35" points="2736.11 1397.72 2889.35 1600 2121.15 1600 2091.69 1397.72 2736.11 1397.72"/><polygon class="cls-35" points="2006.98 1008.32 1255.6 1008.32 1354.12 956.72 1870.61 956.72 2006.98 1008.32"/><polygon class="cls-36" points="587.21 1008.32 257.8 1008.32 350.97 956.72 561.83 956.72 587.21 1008.32"/><polygon class="cls-36" points="2349.05 1256.37 1841.9 1256.37 1611.56 1152.04 2114.34 1152.04 2349.05 1256.37"/><polygon class="cls-35" points="1841.9 1256.37 672.12 1256.37 814.08 1152.04 1611.56 1152.04 1841.9 1256.37"/><polygon class="cls-36" points="287.69 1256.37 -129.04 1256.37 -84.92 1198.13 -1.7 1152.04 291.54 1152.04 287.69 1256.37"/><polygon class="cls-36" points="837.26 956.72 607.16 956.72 662.39 913.99 889.3 913.99 837.26 956.72"/><polygon class="cls-36" points="1202.8 956.72 837.26 956.72 889.3 913.99 1164.12 913.99 1202.8 956.72"/><polygon class="cls-36" points="2149.03 956.72 1731.5 956.72 1690.13 913.99 2071.89 913.99 2149.03 956.72"/><polygon class="cls-36" points="288.42 1397.72 -125.4 1397.72 81.78 1256.37 462.32 1256.37 288.42 1397.72"/><polygon class="cls-36" points="2276.22 1397.72 1353.42 1397.72 1486.07 1256.37 2021.62 1256.37 2276.22 1397.72"/><polygon class="cls-35" points="81.79 1256.37 -125.4 1397.72 -236.11 1397.72 -129.04 1256.37 81.79 1256.37"/><path class="cls-37" d="M843,1600H-389.35l304.43-401.87L493.05,878h78.7C434.7,1005.72,317.89,1253.7,843,1600Z"/><path class="cls-38" d="M2584.92,1198.13,2889.35,1600H2150.63c125.18-176.29,166.28-430.35-164.39-722H2007Z"/><path class="cls-39" d="M2502.45,1154.88l81.74,45.34,4,2.26-6.52-8.61-80.75-44.66-135.19-74.77-7.08-3.92-2.23-1.24-111.14-61.46L2156.93,959l-2.82-1.57-5.23-2.89-77-42.6L2007,876H493l-67.07,37.1L343.07,959l-87.15,48.19-112.36,62.14-2.69,1.49-6.63,3.67L-3,1150.34l-78.69,43.52-6.63,8.75,4.18-2.43,81.68-45.3H288l-3.66,93.94-.16,4.37H-126.63l-4.83,6.38H72.86l-98.45,67.06L-124.53,1394H-233.31l-5.61,7.41h897.6l55.46,190.62,2.31,8h9.25l-58.61-198.57H1053.3L1012.67,1600h7.93l39.89-198.57h1028l13.8,100.33,13.52,98.24H2124l-13.72-97-14.35-101.57h643l-5.61-7.41H2275.48l-146.33-81.1-96.26-53.35h598.57l-4.83-6.38H2348.09L2170,1174.13l-43.38-19.25Zm-10.22-5.67H2273.34l-52.89-35.73-57.78-39h194.75Zm-144.1-79.93H1889.86l6.45-58.58H2242.5Zm-736.78,85.6L1828,1253.19H681.14l68.6-50.52,64.9-47.79Zm-613.08-5.67,14.05-38.22,13.44-36.55h251.9l1.76,36.55,1.83,38.22ZM808,1069.28l-20.14-29.82-19.42-28.76h665.81l9.71,28.76,10.07,29.82ZM1311,982.09,1355.07,959H1870.8L1906,972.3l88.78,33.64H1265.5Zm-56.19,23.85H860.27l39.24-23.85L937.57,959h407.09l-4,2.08Zm-50.52-51.45-17.65-19.44-17.21-19h519.74l20.73,21.46,16.37,16.94Zm-6.92,0H843.44l23.64-19.44,23-19h272.54Zm-337.1-19.44L836.5,954.49H613.41l41.65-32.28,7.9-6.12H883.35ZM929.09,959l-38.2,23.14-39.36,23.85H589.63L584.71,996,566.4,959Zm-307.3,51.75H761.07l19.28,28.76,20,29.82H451.43l143.78-49.44Zm828.11,28.76-9.81-28.76h450l-6.67,58.58h-423.3Zm784-33.52H2006.58l-85.12-32.16L1882.2,959h267Zm-92.76-51.45h-408.7l-18.18-18.74-19.07-19.66h376.72ZM2006.9,880l57.44,31.87H1783.6l-8.23-7L1746.18,880Zm-961.63,0H1740l28.69,24.52,8.59,7.35H1029.61l7.92-16.11Zm-97.44,0h92L1032,895.78l-8,16.11H924.79l11.64-16.11Zm-202.58,0H942.19l-11.46,15.76L919,911.89H706.84ZM493.1,880H739l-38.54,31.87H435.66Zm-65,36.07H656.38l-6,4.64-43.72,33.76H358.84ZM350.81,959H559.44L578.08,997l4.37,8.93H266.08ZM257.5,1010.7h351l-2.95,1-167.91,57.57H151.87ZM156.15,1149.21H7.77l134.81-74.77H274.45Zm8.21,0,117.94-74.77h737.38L1006.11,1111l-14.2,38.22Zm130.55,5.67H805.78l-65.14,47.79-68.87,50.52H291.47l.3-8.74ZM288.47,1394h-403.9l98.61-67.38,98.16-67.07H454.21l-79.92,64.83Zm1063.31,0H297.45L383,1324.4l79.63-64.83H1478.31l-61,64.83Zm820.78-50.65,91.08,50.65H1362l65.14-69.62,60.67-64.83h534ZM2174,1181.2l161.7,72h-494L1730,1202.67l-105.69-47.79h490.57Zm-886.51-32-2-38.22-1.89-36.55H2155l72.33,49,38,25.74Z"/><g class="cls-40"><path class="cls-41" d="M1410.43,1033.23c-43.13-24.1-97.2-37.45-153.82-38.41l-.49-116.8h-12.24l-.49,116.8c-56.62,1-110.69,14.31-153.82,38.41-47,26.28-76.7,62.79-82.53,103.65-6.14,42.93,14.73,85.14,60.27,118.06,44.66,32.29,106.88,51.13,174.75,52.51L1240.82,1600h18.36l-1.24-292.55c67.87-1.38,130.09-20.22,174.75-52.51,45.54-32.92,66.41-75.13,60.27-118.06C1487.13,1096,1457.46,1059.51,1410.43,1033.23Zm-389,103.65c9.88-73.52,108.48-129,221.87-131.06l-1.21,286C1108.48,1289,1010.65,1217.36,1021.47,1136.88Zm236.4,155-1.21-286c113.39,2,212,57.54,221.87,131.06C1489.35,1217.36,1391.52,1289,1257.87,1291.84Z"/><path class="cls-41" d="M1761.24,1226.43c-53.15-54.45-91.69-106.81-113-152-17.78-37.76-23.37-70.58-16.52-93.22,9.73-32.21,37.33-53.58,81.83-64.42a272.06,272.06,0,0,1,65.06-7.1h285.5l-17.5-9.69H1775.59a283.44,283.44,0,0,0-68.06,7.31c-47.26,11.34-78,35-88.78,69.52-7.77,24.94-2.4,59.18,16.44,99.94,21.69,46.91,61.09,101.2,115.55,157.58,82.92,85.83,241.37,218.29,524.84,365.64h36.06C2011.51,1449.6,1846.18,1313.45,1761.24,1226.43Z"/><path class="cls-41" d="M2108.86,1275.21l-21.15-20.28c1.07,0,2.15,0,3.19-.11l-7.51-14.72c-3.51.16-7.17.25-10.89.25l-218.45-209.49,1.59.09-3.22-11.32c-3.58-.23-7.11-.38-10.6-.5l-8.63-8.28h413.59l-20-11.06H1806.43l19.86,19.21c-47.9,1-80,14.78-88.57,38.79-7.3,20.44,3.06,46.74,30,74.35,30.17,30.92,78.35,61,136,84.45,57,23.15,116.28,36.86,166.35,38.35l36.77,35.59h548.12l-11.61-15.32ZM1778,1125.5c-23.38-23.73-32.33-45-26.48-61.87,7.43-21.36,38.18-33.36,84.51-33.36l2,0,216.39,209.48C1956.81,1233.83,1834.35,1182.71,1778,1125.5Z"/><path class="cls-41" d="M2155.45,1156.06a199.7,199.7,0,0,0-24.85-26l-9.43,6.21a173.48,173.48,0,0,1,21.63,22.77Z"/><path class="cls-41" d="M2087.11,1110.37a317.93,317.93,0,0,1,26.4,19.39l8.59-6.86a343.72,343.72,0,0,0-28.65-20.9Z"/><path class="cls-41" d="M2015.19,1060.75l-2.48,10.17c9.83,4.18,19.51,8.66,28.79,13.29l3.71-9.69C2035.52,1069.71,2025.42,1065.08,2015.19,1060.75Z"/><path class="cls-41" d="M2129.69,1249.19,2119,1235a151.17,151.17,0,0,1-26.75,4.54l8.19,14.68A164.4,164.4,0,0,0,2129.69,1249.19Z"/><path class="cls-41" d="M2078.56,1104.88l5.76-8.7c-9.41-5.83-19.44-11.52-29.8-16.93l-4.14,9.51C2060.21,1093.92,2069.69,1099.34,2078.56,1104.88Z"/><path class="cls-41" d="M2161.06,1233.53l-14.33-12.13c-5.15,4.49-11.94,8.27-20.18,11.23l11.48,13.91C2147.39,1243.15,2155.14,1238.77,2161.06,1233.53Z"/><path class="cls-41" d="M1928.55,1042.73l-.46-11c-9.84-2.41-19.66-4.51-29.2-6.25l1.45,11.13C1909.55,1038.34,1919,1040.39,1928.55,1042.73Z"/><path class="cls-41" d="M1891.66,1035.14,1889.9,1024c-9.77-1.58-19.4-2.81-28.64-3.65l2.86,11.29C1873,1032.42,1882.26,1033.61,1891.66,1035.14Z"/><path class="cls-41" d="M1966,1053.43l.8-10.68c-9.84-3.17-19.79-6.08-29.59-8.66l.17,10.9C1946.86,1047.5,1956.49,1050.34,1966,1053.43Z"/><path class="cls-41" d="M2175.23,1203.83l-16.64-6.35a31.21,31.21,0,0,1-7.26,19.19l15.17,11.19A38.8,38.8,0,0,0,2175.23,1203.83Z"/><path class="cls-41" d="M2003.75,1067.19l2.13-10.28c-9.8-4-19.85-7.68-29.87-11.1l-1.09,10.6C1984.59,1059.73,1994.29,1063.35,2003.75,1067.19Z"/><path class="cls-41" d="M2167.05,1173.71c-1.52-2.88-3.27-5.82-5.19-8.76l-13.75,1.59c1.57,2.41,3,4.82,4.2,7.17a55.73,55.73,0,0,1,5.82,16.79l16.43,4.4A70.88,70.88,0,0,0,2167.05,1173.71Z"/><path class="cls-41" d="M792.47,907.32A283.44,283.44,0,0,0,724.41,900H453.35l-17.5,9.69h285.5a272.06,272.06,0,0,1,65.06,7.1c44.5,10.84,72.1,32.21,81.83,64.42,6.85,22.64,1.26,55.46-16.52,93.22-21.27,45.18-59.81,97.54-113,152-84.94,87-250.27,223.17-550.4,373.57h36.06c283.47-147.35,441.92-279.81,524.84-365.64,54.46-56.38,93.86-110.67,115.55-157.58,18.84-40.76,24.21-75,16.44-99.94C870.51,942.34,839.73,918.66,792.47,907.32Z"/><path class="cls-41" d="M430,1254.94c50.07-1.49,109.32-15.2,166.35-38.35,57.62-23.4,105.8-53.53,136-84.45,26.93-27.61,37.29-53.91,30-74.35-8.57-24-40.67-37.82-88.57-38.79l19.86-19.21H273.2l-20,11.06H666.81l-8.63,8.28c-3.49.12-7,.27-10.6.5L644.36,1031l1.59-.09L427.5,1240.35c-3.72,0-7.38-.09-10.89-.25l-7.51,14.72c1,.06,2.12.08,3.19.11l-21.15,20.28H-143.31l-11.61,15.32H393.2ZM662,1030.29l2,0c46.33,0,77.08,12,84.51,33.36,5.85,16.83-3.1,38.14-26.48,61.87-56.38,57.21-178.84,108.33-276.38,114.27Z"/><path class="cls-41" d="M344.55,1156.06l12.65,3a173.48,173.48,0,0,1,21.63-22.77l-9.43-6.21A199.7,199.7,0,0,0,344.55,1156.06Z"/><path class="cls-41" d="M377.9,1122.9l8.59,6.86a317.93,317.93,0,0,1,26.4-19.39l-6.34-8.37A343.72,343.72,0,0,0,377.9,1122.9Z"/><path class="cls-41" d="M484.81,1060.75c-10.23,4.33-20.33,9-30,13.77l3.71,9.69c9.28-4.63,19-9.11,28.79-13.29Z"/><path class="cls-41" d="M370.31,1249.19a164.4,164.4,0,0,0,29.21,5l8.19-14.68A151.17,151.17,0,0,1,381,1235Z"/><path class="cls-41" d="M415.68,1096.18l5.76,8.7c8.87-5.54,18.35-11,28.18-16.12l-4.14-9.51C435.12,1084.66,425.09,1090.35,415.68,1096.18Z"/><path class="cls-41" d="M373.45,1232.63c-8.24-3-15-6.74-20.18-11.23l-14.33,12.13c5.92,5.24,13.67,9.62,23,13Z"/><path class="cls-41" d="M601.11,1025.52c-9.54,1.74-19.36,3.84-29.2,6.25l-.46,11c9.51-2.34,19-4.39,28.21-6.08Z"/><path class="cls-41" d="M638.74,1020.32c-9.24.84-18.87,2.07-28.64,3.65l-1.76,11.17c9.4-1.53,18.67-2.72,27.54-3.53Z"/><path class="cls-41" d="M562.79,1034.09c-9.8,2.58-19.75,5.49-29.59,8.66l.8,10.68c9.51-3.09,19.14-5.93,28.62-8.44Z"/><path class="cls-41" d="M341.41,1197.48l-16.64,6.35a38.8,38.8,0,0,0,8.73,24l15.17-11.19A31.21,31.21,0,0,1,341.41,1197.48Z"/><path class="cls-41" d="M525.08,1056.41l-1.09-10.6c-10,3.42-20.07,7.15-29.87,11.1l2.13,10.28C505.71,1063.35,515.41,1059.73,525.08,1056.41Z"/><path class="cls-41" d="M333,1173.71a70.88,70.88,0,0,0-7.51,21.19l16.43-4.4a55.73,55.73,0,0,1,5.82-16.79c1.22-2.35,2.63-4.76,4.2-7.17L338.14,1165C336.22,1167.89,334.47,1170.83,333,1173.71Z"/></g></g><ellipse class="cls-42" cx="773.55" cy="1135.08" rx="401.45" ry="120.01"/><ellipse class="cls-43" cx="1726.45" cy="1135.08" rx="401.45" ry="120.01"/></g></g></svg>