<svg id="Layer_1" data-name="Layer 1" xmlns="http://www.w3.org/2000/svg" viewBox="0 0 2800 2800"><defs><style>.cls-1{fill:#c9e8fe;}.cls-2{fill:#7a5224;}.cls-3{fill:#92ba3a;}.cls-4{opacity:0.1;}.cls-5{fill:#74922e;}.cls-6{fill:#617a27;}.cls-7{fill:#aca9ba;}.cls-8{fill:#b69330;}.cls-9{fill:#a7654d;}.cls-10{fill:#975b46;}.cls-11{fill:#a8a8a8;}.cls-12{fill:#4a5362;}.cls-13{fill:#555f72;}.cls-14{fill:#bd7155;}.cls-15{fill:#9c5f48;}.cls-16{fill:#b0b2b2;}.cls-17{fill:#c8c8c7;}.cls-18{fill:#cea535;}.cls-19{fill:#e2b63a;}.cls-20{fill:#997b27;}.cls-21{fill:#84a834;}.cls-22{fill:#534747;}.cls-23{fill:#be514e;}.cls-24{fill:#685858;}.cls-25{fill:#d19a44;}.cls-26{fill:#a64644;}.cls-27{fill:#d25956;}.cls-28{fill:#f0c9c7;}.cls-29{fill:#a84745;}.cls-30{fill:#e6a84a;}.cls-31{fill:#913d3c;}.cls-32{fill:#e0f8ff;}</style></defs><rect class="cls-1" width="2800" height="2299.13"/><rect class="cls-2" x="843.88" y="1773.28" width="30.46" height="107.11"/><path class="cls-3" d="M722.87,1754.76l114.43-395c6.33-21.84,37.28-21.84,43.61,0l114.44,395a22.71,22.71,0,0,1-21.81,29H744.68A22.7,22.7,0,0,1,722.87,1754.76Z"/><path class="cls-4" d="M752.09,1754.76l114.43-395a22.48,22.48,0,0,1,7.2-11.22c-11.52-9.57-31.48-5.84-36.42,11.22l-114.43,395a22.7,22.7,0,0,0,21.81,29H773.9A22.7,22.7,0,0,1,752.09,1754.76Z"/><rect class="cls-2" x="2513.58" y="1773.28" width="30.46" height="107.11"/><path class="cls-3" d="M2392.57,1754.76l114.43-395c6.33-21.84,37.28-21.84,43.61,0l114.44,395a22.71,22.71,0,0,1-21.81,29H2414.38A22.7,22.7,0,0,1,2392.57,1754.76Z"/><path class="cls-4" d="M2421.79,1754.76l114.43-395a22.48,22.48,0,0,1,7.2-11.22c-11.52-9.57-31.48-5.84-36.42,11.22l-114.43,395a22.7,22.7,0,0,0,21.81,29h29.22A22.71,22.71,0,0,1,2421.79,1754.76Z"/><rect class="cls-2" x="1432.22" y="1609.91" width="28.61" height="270.48"/><circle class="cls-3" cx="1446.53" cy="1522.46" r="179.03"/><path class="cls-4" d="M1317.81,1522.46a179.07,179.07,0,0,1,153.88-177.28,181.52,181.52,0,0,0-25.16-1.75,179,179,0,1,0,25.16,356.31A179.07,179.07,0,0,1,1317.81,1522.46Z"/><rect class="cls-2" x="426.98" y="1609.91" width="28.61" height="270.48"/><circle class="cls-3" cx="441.29" cy="1522.46" r="179.03" transform="translate(-947.29 757.96) rotate(-45)"/><path class="cls-4" d="M312.58,1522.46a179.07,179.07,0,0,1,153.87-177.28,181.52,181.52,0,0,0-25.16-1.75,179,179,0,1,0,25.16,356.31A179.07,179.07,0,0,1,312.58,1522.46Z"/><rect class="cls-2" x="1924.76" y="1652.47" width="27.18" height="227.92"/><rect class="cls-3" x="1831.55" y="1343.43" width="213.6" height="353.47" rx="106.8"/><path class="cls-4" d="M1864.86,1590.1V1450.22a106.83,106.83,0,0,1,90.15-105.5,107.63,107.63,0,0,0-16.66-1.29h0a106.8,106.8,0,0,0-106.8,106.79V1590.1a106.8,106.8,0,0,0,106.8,106.79h0a107.63,107.63,0,0,0,16.66-1.29A106.83,106.83,0,0,1,1864.86,1590.1Z"/><rect class="cls-5" y="1956.26" width="2800" height="244.95"/><rect class="cls-6" y="1868.79" width="2800" height="87.47"/><rect class="cls-3" y="2201.21" width="2800" height="598.79"/><path class="cls-7" d="M718,1809.1,794.31,1979a145.5,145.5,0,0,0,132.54,85.76,8.28,8.28,0,0,1,8.28,8.28c0,.8-10.72,7.55-10.93,8.28h106.7c-45.56-12.75-121.16-51.11-141.12-95.54l-76.31-169.87a150.24,150.24,0,0,0-136.84-88.55H638.36A166.64,166.64,0,0,1,718,1809.1Z"/><path class="cls-8" d="M650.59,1536.3H285.71c-11.47,0-20.78,8.92-20.78,19.93V1713H671.37V1556.23C671.37,1545.22,662.07,1536.3,650.59,1536.3Zm-2.42,174.48H573v-75.94a37.6,37.6,0,0,1,37.6-37.6h0a37.59,37.59,0,0,1,37.6,37.6Z"/><rect class="cls-9" x="120.7" y="1779.94" width="73.54" height="19.23"/><rect class="cls-10" x="120.7" y="1795.32" width="73.54" height="3.85"/><rect class="cls-9" x="108.93" y="1832.09" width="73.54" height="19.23"/><rect class="cls-10" x="108.93" y="1847.47" width="73.54" height="3.85"/><rect class="cls-9" x="100.04" y="1884.24" width="76.71" height="19.23"/><rect class="cls-10" x="100.04" y="1899.62" width="76.71" height="3.85"/><rect class="cls-9" x="94.52" y="1936.39" width="74.25" height="19.23"/><rect class="cls-10" x="94.52" y="1951.77" width="74.25" height="3.85"/><rect class="cls-9" x="81.29" y="1988.54" width="77.62" height="19.23"/><rect class="cls-10" x="81.29" y="2003.92" width="77.62" height="3.85"/><rect class="cls-9" x="69.28" y="2040.69" width="81.23" height="19.23"/><rect class="cls-10" x="69.28" y="2056.07" width="81.23" height="3.85"/><path class="cls-11" d="M659.24,1492.28H223.34a6.64,6.64,0,0,0,0,13.28h14.07v40.23h10.32v-40.23h39.36v40.23h10.32v-40.23h39.36v40.23h10.32v-40.23h39.36v40.23h10.32v-40.23h39.36v40.23h10.32v-40.23h39.36v40.23h10.32v-40.23h39.36v40.23h10.32v-40.23h39.36v40.23h10.32v-40.23h39.36v40.23h10.32v-40.23h14.07a6.64,6.64,0,0,0,0-13.28Z"/><polygon class="cls-12" points="627.27 1752.75 665.88 1752.75 665.88 2081.3 627.27 2081.3 627.27 1752.75 627.27 1752.75"/><polygon class="cls-13" points="541.4 1752.75 580.01 1752.75 580.01 2081.3 541.4 2081.3 541.4 1752.75 541.4 1752.75"/><polygon class="cls-12" points="300.45 1752.75 339.06 1752.75 339.06 2081.3 300.45 2081.3 300.45 1752.75 300.45 1752.75"/><polygon class="cls-13" points="214.58 1752.75 253.2 1752.75 253.2 2081.3 214.58 2081.3 214.58 1752.75 214.58 1752.75"/><polygon class="cls-14" points="132.66 1752.75 81.38 2081.3 57 2081.3 108.28 1752.75 132.66 1752.75"/><polygon class="cls-14" points="214.58 1752.75 163.3 2081.3 138.91 2081.3 190.19 1752.75 214.58 1752.75"/><polygon class="cls-15" points="124.68 1752.75 73.4 2081.3 81.38 2081.3 132.66 1752.75 124.68 1752.75"/><polygon class="cls-15" points="206.6 1752.75 155.32 2081.3 163.3 2081.3 214.58 1752.75 206.6 1752.75"/><path class="cls-16" d="M703,1731.76a21,21,0,0,1-21,21h-391a21,21,0,0,1-21-21h0a21,21,0,0,1,21-21H682a21,21,0,0,1,21,21Z"/><path class="cls-17" d="M617.3,1492.28H181.4a6.64,6.64,0,0,0,0,13.28h14.07v40.23h10.32v-40.23h39.36v40.23h10.32v-40.23h39.36v40.23h10.32v-40.23h39.36v40.23h10.32v-40.23h39.36v40.23h10.32v-40.23h39.36v40.23h10.32v-40.23h39.36v40.23h10.31v-40.23h39.37v40.23h10.31v-40.23h39.37v40.23h10.31v-40.23H617.3a6.64,6.64,0,1,0,0-13.28Z"/><path class="cls-18" d="M662.48,1536.3H297.61c-11.48,0-20.79,8.92-20.79,19.93V1713H683.27V1556.23C683.27,1545.22,674,1536.3,662.48,1536.3Zm-2.41,174.48h-75.2v-75.94a37.59,37.59,0,0,1,37.6-37.6h0a37.6,37.6,0,0,1,37.6,37.6Z"/><path class="cls-12" d="M1037.43,2081.3a162.1,162.1,0,0,1-147.65-95.54l-76.31-169.87a150.24,150.24,0,0,0-136.84-88.55H576.52a8.29,8.29,0,0,1,0-16.57H676.63a166.82,166.82,0,0,1,152,98.33L904.89,1979a145.5,145.5,0,0,0,132.54,85.76,8.28,8.28,0,0,1,0,16.56Z"/><path class="cls-13" d="M926.85,2081.3a162.1,162.1,0,0,1-147.65-95.54l-76.31-169.87A150.24,150.24,0,0,0,566,1727.34H465.94a8.29,8.29,0,0,1,0-16.57H566a166.83,166.83,0,0,1,152,98.33L794.31,1979a145.5,145.5,0,0,0,132.54,85.76,8.28,8.28,0,0,1,0,16.56Z"/><path class="cls-19" d="M540.77,1536.3H190.82a19.93,19.93,0,0,0-19.94,19.93V1713H560.71V1556.23a19.93,19.93,0,0,0-19.94-19.93Z"/><path class="cls-17" d="M581.69,1731.76a21,21,0,0,1-21,21H102.28a21,21,0,0,1-21-21h0a21,21,0,0,1,21-21H560.71a21,21,0,0,1,21,21Z"/><path class="cls-20" d="M1187.37,1733.88H1050.3a9.14,9.14,0,1,1,0-18.27h137.07a9.14,9.14,0,1,1,0,18.27Z"/><path class="cls-20" d="M1133.9,1778.85H1005.4a9.14,9.14,0,1,1,0-18.27h128.5a9.14,9.14,0,1,1,0,18.27Z"/><path class="cls-20" d="M1111.63,1823.82H983.12a9.14,9.14,0,1,1,0-18.27h128.51a9.14,9.14,0,0,1,0,18.27Z"/><path class="cls-20" d="M1096,1868.79H967.49a9.14,9.14,0,0,1,0-18.27H1096a9.14,9.14,0,1,1,0,18.27Z"/><path class="cls-20" d="M1097.92,1913.76H969.41a9.14,9.14,0,0,1,0-18.27h128.51a9.14,9.14,0,1,1,0,18.27Z"/><path class="cls-20" d="M1096,1958.74H967.49a9.14,9.14,0,0,1,0-18.28H1096a9.14,9.14,0,1,1,0,18.28Z"/><path class="cls-20" d="M1539.27,1733.88H1402.19a9.14,9.14,0,0,1,0-18.27h137.08a9.14,9.14,0,1,1,0,18.27Z"/><path class="cls-20" d="M1584.17,1778.85H1455.66a9.14,9.14,0,0,1,0-18.27h128.51a9.14,9.14,0,1,1,0,18.27Z"/><path class="cls-20" d="M1606.44,1823.82h-128.5a9.14,9.14,0,1,1,0-18.27h128.5a9.14,9.14,0,1,1,0,18.27Z"/><path class="cls-20" d="M1622.07,1868.79H1493.56a9.14,9.14,0,0,1,0-18.27h128.51a9.14,9.14,0,1,1,0,18.27Z"/><path class="cls-20" d="M1620.15,1913.76h-128.5a9.14,9.14,0,1,1,0-18.27h128.5a9.14,9.14,0,1,1,0,18.27Z"/><path class="cls-20" d="M1622.07,1958.74H1493.56a9.14,9.14,0,0,1,0-18.28h128.51a9.14,9.14,0,1,1,0,18.28Z"/><path class="cls-18" d="M1485,1991a11.42,11.42,0,0,1-11.43-11.42V1873.38c0-90.08-73.28-163.36-163.36-163.36H1142.28c-90.08,0-163.36,73.28-163.36,163.36V1979.6a11.43,11.43,0,0,1-22.85,0V1873.38c0-102.67,83.53-186.21,186.21-186.21h167.93c102.68,0,186.21,83.54,186.21,186.21V1979.6A11.42,11.42,0,0,1,1485,1991Z"/><path class="cls-19" d="M1622.07,1991a11.42,11.42,0,0,1-11.42-11.42V1873.38c0-90.08-73.29-163.36-163.37-163.36H1279.35c-90.08,0-163.36,73.28-163.36,163.36V1979.6a11.42,11.42,0,0,1-22.84,0V1873.38c0-102.67,83.53-186.21,186.2-186.21h167.93c102.68,0,186.21,83.54,186.21,186.21V1979.6A11.42,11.42,0,0,1,1622.07,1991Z"/><path class="cls-21" d="M2510.6,2299.13H2645a49,49,0,0,0,49-49h0a49,49,0,0,0-49-49H172.9a49,49,0,0,0-49,49h0a49,49,0,0,0,49,49H1889.81a49,49,0,0,1,0,97.92h-739a49,49,0,0,0-49,48.95h0a49,49,0,0,0,49,49h7.64a49,49,0,0,1,0,97.92H354.69a49,49,0,0,0-49,48.95h0a49,49,0,0,0,49,49H1848.91a49,49,0,0,0,49-49h0a49,49,0,0,0-49-48.95h-69.72a49,49,0,0,1,0-97.92H2645a49,49,0,0,0,49-49h0a49,49,0,0,0-49-48.95H2510.6a49,49,0,0,1,0-97.92Z"/><path class="cls-22" d="M2155.61,1678.82H1947.5a149.52,149.52,0,0,0-134.41,84L1697.45,2000a24.17,24.17,0,0,1-21.58,13.48l-155.56.51a51.69,51.69,0,0,0-51.51,51.68v72.66a63.35,63.35,0,0,0,9.2.68h197.87a149.55,149.55,0,0,0,134.4-84l115.65-237.16a24.14,24.14,0,0,1,21.58-13.48h209.35a62.76,62.76,0,0,0,62.75-61.54C2220.28,1707.61,2190.81,1678.82,2155.61,1678.82Z"/><rect class="cls-23" x="2249.37" y="1589.36" width="339.86" height="545.42"/><path class="cls-24" d="M2428.74,1805.91h208.54c16.81,0,22-7.57,22-16.91h0c0-9.33-5.22-16.9-22-16.9H2428.74c-16.81,0-30.44,7.57-30.44,16.9h0C2398.3,1798.34,2411.93,1805.91,2428.74,1805.91Z"/><rect class="cls-25" x="2202.02" y="1502.69" width="434.55" height="92.9" rx="42.33"/><path class="cls-24" d="M2249.76,1678.82H2041.64a149.52,149.52,0,0,0-134.4,84L1791.59,2000a24.15,24.15,0,0,1-21.58,13.48l-155.56.51a51.69,51.69,0,0,0-51.51,51.68v72.66a63.56,63.56,0,0,0,9.2.68H1770a149.55,149.55,0,0,0,134.4-84l115.65-237.16a24.17,24.17,0,0,1,21.58-13.48H2251a62.76,62.76,0,0,0,62.75-61.54C2314.42,1707.61,2285,1678.82,2249.76,1678.82Z"/><rect class="cls-9" x="2553.21" y="1815.17" width="77.99" height="20.39" transform="translate(5184.41 3650.73) rotate(180)"/><rect class="cls-10" x="2553.21" y="1831.48" width="77.99" height="4.08"/><rect class="cls-9" x="2565.7" y="1870.48" width="77.99" height="20.39" transform="translate(5209.39 3761.34) rotate(180)"/><rect class="cls-10" x="2565.7" y="1886.79" width="77.99" height="4.08"/><rect class="cls-9" x="2571.77" y="1925.78" width="81.36" height="20.39" transform="translate(5224.89 3871.96) rotate(180)"/><rect class="cls-10" x="2571.76" y="1942.1" width="81.36" height="4.08"/><rect class="cls-9" x="2580.23" y="1981.09" width="78.74" height="20.39" transform="translate(5239.2 3982.57) rotate(180)"/><rect class="cls-10" x="2580.23" y="1997.4" width="78.74" height="4.08"/><rect class="cls-9" x="2590.68" y="2036.4" width="82.32" height="20.39" transform="translate(5263.68 4093.18) rotate(180)"/><rect class="cls-10" x="2590.68" y="2052.71" width="82.32" height="4.08"/><rect class="cls-9" x="2599.6" y="2091.7" width="86.15" height="20.39" transform="translate(5285.34 4203.8) rotate(180)"/><rect class="cls-10" x="2599.6" y="2108.01" width="86.15" height="4.08"/><polygon class="cls-14" points="2618.52 1786.33 2672.9 2134.78 2698.77 2134.78 2644.38 1786.33 2618.52 1786.33"/><polygon class="cls-14" points="2531.64 1786.33 2586.03 2134.78 2611.89 2134.78 2557.5 1786.33 2531.64 1786.33"/><polygon class="cls-15" points="2626.98 1786.33 2681.37 2134.78 2672.9 2134.78 2618.52 1786.33 2626.98 1786.33"/><polygon class="cls-15" points="2540.11 1786.33 2594.49 2134.78 2586.03 2134.78 2531.64 1786.33 2540.11 1786.33"/><path class="cls-26" d="M2315.74,1355.46a11.94,11.94,0,0,1-11.94-12v-91a11.94,11.94,0,0,1,23.88,0v91a12,12,0,0,1-11.94,12Z"/><rect class="cls-27" x="2145.81" y="1589.36" width="339.86" height="545.42"/><path class="cls-28" d="M2236.45,1800.14H2395V1718a79.29,79.29,0,0,0-79.29-79.29h0a79.29,79.29,0,0,0-79.29,79.29Z"/><path class="cls-29" d="M2343.37,1643.71a79.12,79.12,0,0,0-27.63-5h0a79.29,79.29,0,0,0-79.29,79.29v82.1h55.26V1718A79.31,79.31,0,0,1,2343.37,1643.71Z"/><rect class="cls-30" x="2098.47" y="1502.69" width="434.55" height="92.9" rx="42.33"/><path class="cls-26" d="M2315.74,1337.15a165.54,165.54,0,0,0-165.54,165.54h331.08A165.55,165.55,0,0,0,2315.74,1337.15Z"/><path class="cls-31" d="M2481.28,1502.69h103.56a165.55,165.55,0,0,0-165.54-165.54H2315.75A165.54,165.54,0,0,1,2481.28,1502.69Z"/><path class="cls-28" d="M2236.45,2037H2395v-82.09a79.29,79.29,0,0,0-79.29-79.29h0a79.29,79.29,0,0,0-79.29,79.29Z"/><path class="cls-29" d="M2343.37,1880.52a79.12,79.12,0,0,0-27.63-5h0a79.29,79.29,0,0,0-79.29,79.29V2037h55.26v-82.09A79.32,79.32,0,0,1,2343.37,1880.52Z"/><path class="cls-32" d="M2800,1069.12a100.37,100.37,0,0,0-109.83-14.22,170.93,170.93,0,0,0-292.32,3,100.34,100.34,0,0,0-149.26,73.86H2800Z"/><path class="cls-32" d="M345.91,290a170.94,170.94,0,0,0-292.33-3A99.89,99.89,0,0,0,9.37,276.81q-4.74,0-9.37.44V363.9H495.16A100.33,100.33,0,0,0,345.91,290Z"/><path class="cls-32" d="M337.44,1170.32a100.35,100.35,0,0,0-129.07-36.58A171,171,0,0,0-6,1067.49v143.09H439.28a65.46,65.46,0,0,0-101.84-40.26Z"/><path class="cls-32" d="M1892.51,739H1769.22a65.46,65.46,0,0,0-101.84-40.26,100.35,100.35,0,0,0-129.07-36.58,170.93,170.93,0,0,0-292.32,3A100.34,100.34,0,0,0,1096.73,739H893.61a13.22,13.22,0,1,0,0,26.43h998.9a13.22,13.22,0,0,0,0-26.43Z"/><path class="cls-32" d="M1849.91,32a100.36,100.36,0,0,0-129.07,36.57A65.46,65.46,0,0,0,1619,108.79H1495.72a13.22,13.22,0,0,0,0,26.43h998.9a13.22,13.22,0,0,0,0-26.43H2291.5a100.34,100.34,0,0,0-149.26-73.86A171.82,171.82,0,0,0,2114.81,0H1875.54A171.53,171.53,0,0,0,1849.91,32Z"/></svg>