<?xml version="1.0" standalone="no"?>
<!DOCTYPE svg PUBLIC "-//W3C//DTD SVG 20010904//EN"
 "http://www.w3.org/TR/2001/REC-SVG-20010904/DTD/svg10.dtd">
<svg version="1.0" xmlns="http://www.w3.org/2000/svg"
 width="912.000000pt" height="912.000000pt" viewBox="0 0 912.000000 912.000000"
 preserveAspectRatio="xMidYMid meet">
<metadata>
Created by potrace 1.14, written by Peter Selinger 2001-2017
</metadata>
<g transform="translate(0.000000,912.000000) scale(0.100000,-0.100000)"
fill="#000000" stroke="none">
<path d="M4875 9113 c-41 -7 -141 -34 -165 -46 -87 -41 -161 -118 -211 -221
-21 -43 -40 -80 -42 -83 -2 -2 -16 16 -31 39 -15 24 -45 57 -67 73 -22 17 -46
35 -53 42 -14 12 -79 43 -131 61 -73 27 -190 34 -275 18 -121 -23 -256 -108
-320 -201 -22 -33 -69 -141 -70 -160 0 -3 0 -14 0 -24 0 -15 -14 -5 -58 39
-182 182 -463 174 -675 -20 -85 -77 -135 -167 -152 -267 -3 -21 -8 -92 -10
-158 -5 -139 -17 -691 -17 -750 0 -46 13 -422 17 -505 5 -104 16 -295 20 -355
2 -33 6 -94 9 -135 3 -41 8 -138 11 -215 3 -77 8 -193 10 -258 7 -159 14 -450
20 -872 3 -192 7 -411 10 -485 5 -181 16 -485 20 -590 16 -352 16 -443 3 -437
-8 3 -24 -2 -35 -12 -34 -26 -42 -69 -58 -286 -16 -215 -15 -209 -31 -330 -7
-53 -11 -80 -25 -145 -18 -92 -20 -123 -9 -150 9 -22 4 -46 -31 -149 -22 -68
-43 -135 -45 -150 -2 -14 -13 -66 -24 -116 -11 -49 -22 -103 -25 -120 -8 -46
-34 -205 -40 -250 -6 -38 -10 -66 -20 -130 -3 -16 -7 -52 -10 -80 -3 -27 -8
-68 -10 -90 -15 -121 -25 -253 -30 -410 -24 -715 -24 -784 3 -845 53 -120 158
-174 467 -239 49 -10 97 -18 165 -27 19 -2 49 -6 65 -8 17 -3 57 -7 90 -11 33
-3 74 -8 90 -10 17 -2 71 -7 120 -11 50 -3 106 -7 125 -9 284 -30 1464 -24
1930 10 174 12 237 17 270 20 19 2 64 6 100 10 36 3 76 8 90 10 14 2 46 6 72
9 79 10 148 21 176 30 10 3 31 8 47 10 17 3 37 7 45 9 168 43 252 95 296 183
17 35 19 61 19 269 -1 204 -10 547 -19 736 -6 108 -22 257 -45 424 -6 39 -13
93 -17 120 -3 28 -8 59 -10 70 -2 11 -9 49 -14 85 -6 36 -15 85 -20 110 -5 25
-11 59 -14 75 -15 103 -95 382 -118 412 -6 7 -4 20 6 35 14 22 14 78 1 136 -3
12 -7 31 -10 43 -2 11 -7 29 -10 39 -3 10 -8 33 -10 51 -3 19 -7 45 -10 59 -5
23 -12 74 -20 140 -2 14 -7 77 -10 140 -17 307 -22 330 -79 344 -20 5 -22 11
-20 58 14 278 39 629 59 798 3 25 7 70 10 100 3 30 7 71 10 90 3 19 7 55 10
80 5 41 29 193 41 265 3 17 7 39 9 50 13 82 48 223 81 325 22 69 115 251 194
385 130 217 245 490 274 650 3 17 8 41 11 55 6 26 11 54 20 105 3 17 7 40 10
53 10 54 18 185 17 288 -1 123 -20 245 -53 349 -13 39 -23 72 -24 75 -3 21
-62 132 -98 187 -68 104 -177 226 -262 293 -46 37 -44 27 -47 260 -1 130 2
180 16 238 40 161 -9 311 -139 430 -94 86 -192 121 -331 117 -103 -2 -164 -16
-252 -57 -60 -28 -161 -116 -163 -141 0 -7 -10 22 -22 63 -29 95 -67 160 -137
232 -61 63 -175 129 -255 147 -53 12 -146 19 -180 14z"/>
</g>
</svg>
